# Blender 4.0.2
# www.blender.org
mtllib mariomodel.mtl
o Mario
v 0.612793 13.060550 2.831298
v -1.946777 14.718750 2.134032
v 1.172607 11.742920 2.782714
v -1.689209 15.349610 2.056884
v 0.000000 14.794920 2.765624
v 0.000000 11.491210 3.139159
v 0.000000 12.227290 0.520507
v -1.033447 10.861330 -0.529542
v -0.866211 12.205320 -0.531739
v 0.000000 12.209720 -1.418458
v 0.866211 12.205320 -0.531739
v 2.645996 8.955811 -1.166993
v 4.129883 9.060791 -1.162355
v 4.203613 10.283940 -1.476075
v 4.182373 9.067139 -1.162599
v 5.968262 9.144775 -1.172853
v 5.996338 10.256840 -1.479005
v -5.968262 9.144775 -1.172853
v -4.264893 10.283200 -1.475099
v -5.996338 10.256840 -1.479005
v -5.982422 10.961910 -0.461671
v -2.463867 -0.000000 -1.141846
v 0.300049 0.000244 1.760498
v -4.182373 9.067139 -1.162599
v -4.129883 9.060791 -1.162355
v -2.645996 8.955811 -1.166993
v -0.463623 11.711430 3.133544
v 2.028809 13.392820 2.201415
v 2.190430 12.957760 2.181884
v 1.700195 12.418700 2.688720
v 1.666504 12.701420 3.003173
v 1.496826 11.988040 2.768310
v 0.783203 12.206540 3.485595
v 0.918457 11.909420 3.002685
v 6.331055 10.958740 -0.466554
v 6.342773 10.251460 -1.479737
v 5.985107 8.758057 -1.240480
v 5.985107 8.770264 0.195068
v 5.985107 9.576416 0.854247
v 5.985107 10.824950 0.578124
v 5.680176 10.273190 0.752685
v -0.240723 3.660645 -1.559814
v -1.353271 5.178955 -1.706543
v -2.535400 5.675049 -1.075928
v -2.659180 5.706787 0.325195
v -1.500488 3.347656 1.257080
v 1.177490 0.685791 -1.995850
v 0.219727 1.684082 0.858154
v 2.985596 1.368652 2.299316
v 1.709229 10.908940 -0.529542
v 1.033447 10.861330 -0.529542
v -2.021729 9.237793 1.706298
v -3.012451 7.983643 0.293212
v 3.517090 15.225100 0.596434
v 0.072998 1.133789 -1.024902
v 1.220215 1.319580 -1.809570
v 2.578857 1.260742 -1.342529
v 1.438721 2.234375 1.457275
v -0.092529 1.340576 2.279297
v -1.453369 1.114746 3.075684
v -2.985596 1.368408 2.299316
v -2.678955 0.000000 1.791016
v 0.000000 9.626709 2.128173
v 1.831787 10.439940 0.652099
v 5.985107 9.578613 -1.913575
v 5.985107 10.826170 -1.634522
v 5.680176 11.186520 -0.450684
v 1.245361 11.285160 -2.453370
v 0.462647 11.177980 -2.757569
v 1.386719 12.112060 -2.082276
v -1.386719 12.112060 -2.082276
v -2.539795 13.752200 -0.950441
v 2.678955 0.000244 1.791016
v 2.066162 0.000244 2.695068
v 1.453369 1.114746 3.075684
v 0.876709 0.000244 2.679688
v 0.224121 -0.000000 -0.931885
v -1.700195 12.418700 2.688720
v -2.042236 12.497800 2.349853
v 0.000000 12.454830 3.359374
v -2.028809 13.392820 2.201415
v 0.000000 12.986080 4.928710
v 1.090332 12.923340 4.450927
v 0.000000 13.893550 3.708739
v -1.111328 13.425540 3.665282
v -0.782227 12.607910 3.032714
v -5.680176 8.884277 0.188720
v -5.680176 10.273190 0.752685
v -5.680176 10.292480 -1.657472
v -5.680176 11.186520 -0.450684
v -5.985107 10.826170 -1.634522
v -6.338379 10.299320 0.553954
v -1.647705 5.890381 -1.803955
v 4.335449 10.975340 -0.434327
v 5.949707 10.265870 0.549072
v 4.006592 10.097660 0.524657
v 2.353271 10.263670 0.592284
v 0.000000 7.746826 2.928710
v 0.000000 6.189697 2.626465
v -1.591309 5.851563 1.738770
v 0.000000 5.379639 1.852539
v 0.000000 4.872070 0.692871
v 1.557129 5.320068 1.333252
v 2.051514 11.311520 0.108886
v 0.000000 10.750240 -0.018800
v -1.709229 10.908940 -0.529542
v 0.000000 9.973877 -2.065187
v -5.949707 10.265870 0.549072
v -3.763672 10.074950 0.522948
v 0.000000 12.059570 -2.499024
v -1.245361 11.285160 -2.453370
v 0.000000 15.995120 4.630370
v -2.226563 15.445070 3.506347
v -2.350098 14.782470 1.275390
v 1.917969 11.511960 -2.179200
v 2.493408 11.711670 -1.702638
v 2.364746 12.434810 -0.577394
v -0.300049 0.000000 1.760498
v -1.177490 0.685791 -1.995850
v -1.220215 1.319580 -1.809570
v 2.659180 5.706787 0.325195
v 2.067871 13.837400 -2.560060
v 2.594971 6.497559 -1.130615
v 2.904541 6.295166 0.497314
v 3.012451 7.983643 0.293212
v -2.067871 13.837400 -2.560060
v -2.708252 12.214360 0.100585
v -3.107178 13.034910 -1.298097
v -3.792236 14.044680 -1.029298
v -3.297363 14.360350 -0.535401
v -1.942139 17.431400 2.168944
v 0.539795 12.123780 4.451415
v -8.720703 10.638670 1.183104
v -6.933350 8.282959 0.828368
v -8.673584 10.497310 -1.955567
v -7.434082 10.497800 -1.995118
v -7.078613 9.000977 -1.754640
v 1.243652 18.185789 -0.304445
v 2.760986 17.132080 0.217284
v -6.358154 9.192139 0.133788
v -7.796143 8.209717 0.746093
v -8.407227 8.512207 -0.060792
v -8.104004 8.754150 0.905517
v 0.401855 10.391110 1.406981
v -1.547607 11.471680 -0.989991
v -0.072998 1.133789 -1.024902
v -0.170166 3.293457 0.535644
v -1.438721 2.234375 1.457275
v -0.224121 -0.000000 -0.931885
v -1.230957 -0.000000 -1.712402
v -2.578857 1.260986 -1.342529
v -1.975830 11.461430 2.014892
v -0.401855 10.391110 1.406981
v -2.415527 13.458740 1.153563
v 5.680176 8.913086 -1.314942
v 5.680176 10.292480 -1.657472
v 2.848633 1.368408 0.260254
v 2.463867 -0.000000 -1.141602
v -5.985107 9.578613 -1.913575
v 1.946777 14.718750 2.134032
v 3.277588 12.215820 -0.504640
v 3.769531 13.039550 -1.045655
v 2.415527 13.458740 1.153563
v 2.690918 14.232910 0.076415
v 3.297363 14.360350 -0.535401
v -2.604248 12.597660 1.343017
v -0.589356 10.656490 2.533202
v 1.500488 3.347656 1.257080
v 1.481689 3.309082 1.258789
v 0.170166 3.293457 0.535400
v -2.760986 17.132080 0.217284
v -3.018311 14.991460 -2.251954
v 0.782227 12.607910 3.032714
v 1.883057 12.479740 2.503661
v 1.591309 5.851563 1.738770
v 2.028809 7.593506 2.103027
v 2.021729 9.237793 1.706298
v -9.343750 9.549072 -0.022462
v -8.235107 8.954346 -1.773194
v -5.985107 11.262700 -0.528077
v -5.985107 10.824950 0.578124
v 6.338379 10.299320 0.553954
v 8.899658 10.944820 -0.097169
v 7.078613 9.000977 -1.754640
v 2.419922 10.265870 -1.497315
v 0.000000 15.602540 2.515380
v 1.689209 15.349610 2.056884
v 2.226563 15.445070 3.506347
v 2.350098 14.782470 1.275390
v 0.000000 14.676760 -4.070558
v 0.000000 15.571780 -3.751466
v -1.848389 15.882320 -2.837159
v 1.848389 15.882320 -2.837159
v 2.708252 12.214360 0.100585
v 1.111328 13.425540 3.665282
v 0.000000 13.601810 2.776854
v 0.000000 11.114260 -1.232911
v -2.364746 12.434810 -0.577394
v 0.000000 18.813721 1.696776
v -1.682129 18.277590 1.229979
v -1.879883 15.888920 2.269042
v 6.329834 9.166260 -1.173097
v 8.407227 8.512207 -0.060792
v 2.690918 9.000244 0.320800
v -2.333252 11.532230 0.966064
v -2.051514 11.311520 0.108886
v -1.571289 10.914550 1.286620
v 1.538086 8.796143 -2.010011
v 2.790039 7.809570 -1.148927
v 1.647705 5.890381 -1.803955
v -1.481689 3.309082 1.258789
v -2.712402 3.380859 -0.234131
v 8.104004 8.754150 0.905517
v 0.000000 16.490971 2.839354
v 0.000000 18.089109 2.902586
v 1.879883 15.888920 2.269042
v 1.942139 17.431400 2.168944
v -9.071533 9.467285 -1.678224
v -2.028809 7.593506 2.103027
v -2.904541 6.295166 0.497314
v -2.790039 7.809570 -1.148927
v -2.594971 6.497559 -1.130615
v 2.712402 3.380859 -0.234131
v 1.975830 11.461430 2.014892
v 1.571289 10.914550 1.286620
v 2.333252 11.532230 0.966064
v -2.690918 9.000244 0.320800
v -4.197510 8.987549 -0.163331
v -2.419922 10.265870 -1.497315
v -1.573486 10.265870 -1.497071
v -2.435791 10.991700 -0.531007
v -4.203613 10.283940 -1.476075
v -1.552490 7.008301 -2.267823
v -2.273438 3.751953 -1.715332
v 0.240723 3.660645 -1.560059
v -7.114990 9.161621 1.287841
v -7.578125 10.676760 1.206542
v -6.342773 10.251460 -1.479737
v 1.353271 5.178955 -1.706543
v 2.535400 5.675049 -1.075928
v 6.358154 9.192139 0.133788
v -1.995605 13.349120 2.204101
v -1.538086 8.796143 -2.010011
v -1.831787 10.439940 0.652099
v 0.000000 10.886470 0.661620
v -3.769531 13.039550 -1.045655
v -3.277588 12.215820 -0.504640
v -3.301514 16.302000 0.660399
v -3.517090 15.225100 0.596434
v -2.621094 13.450680 0.055907
v -2.690918 14.232910 0.076415
v -5.984375 9.154541 0.095458
v -4.006592 10.097660 0.524657
v 1.682129 18.277590 1.229979
v 3.301514 16.302000 0.660399
v 3.018311 14.991460 -2.251954
v -2.353271 10.263670 0.592284
v -4.335449 10.975340 -0.434327
v 9.094482 9.456299 1.090819
v 1.573486 10.265870 -1.497071
v 0.000000 10.866460 -1.758058
v 8.673584 10.497310 -1.955567
v 7.434082 10.497800 -1.995118
v -8.899658 10.944820 -0.097169
v 9.343994 9.549072 -0.022462
v 8.720703 10.638670 1.183104
v 9.071533 9.467285 -1.678224
v 8.235107 8.954346 -1.773194
v -6.329834 9.166260 -1.173097
v -5.985107 9.576416 0.854247
v -0.219727 1.684082 0.858154
v -0.765625 1.976074 2.492920
v -2.212158 1.989990 2.502930
v 0.092529 1.340576 2.279297
v 0.765625 1.976074 2.492920
v 2.212158 1.989990 2.502930
v -0.539795 12.123780 4.451415
v 0.000000 5.578613 -2.003663
v -0.918457 11.909420 3.002685
v -1.496826 11.988040 2.768310
v 7.114990 9.161621 1.287841
v 7.796143 8.209717 0.746093
v 6.933350 8.282959 0.828368
v 5.985107 11.262700 -0.528077
v -0.300049 3.131348 -1.609619
v -1.243652 18.185789 -0.304445
v -2.066162 0.000000 2.695068
v -0.876709 0.000000 2.679688
v -1.090332 12.923340 4.450927
v -0.550537 13.718990 4.554931
v 0.550537 13.718990 4.554931
v 3.107178 13.034910 -1.298097
v 2.435791 10.991700 -0.531007
v 5.982422 10.961910 -0.461671
v 4.264893 10.283200 -1.475099
v 5.680176 8.884277 0.188720
v -1.883057 12.479740 2.503661
v -0.612793 13.060550 2.831298
v 4.197510 8.987549 -0.163331
v 2.273438 3.751953 -1.715332
v 2.301270 3.098633 -1.699463
v 0.300049 3.131348 -1.609619
v -5.985107 8.758057 -1.240480
v -5.680176 8.913086 -1.314942
v -5.985107 8.770264 0.195068
v 0.589356 10.656490 2.533202
v 1.552490 7.008301 -2.267823
v 0.000000 11.824710 3.311767
v 0.463623 11.711430 3.133544
v 5.984375 9.154541 0.095458
v -2.493408 11.711670 -1.702638
v -1.917969 11.511960 -2.179200
v -2.190430 12.957760 2.181884
v 0.000000 12.122070 3.349364
v 2.042236 12.497800 2.349853
v 3.763672 10.074950 0.522948
v -6.331055 10.958740 -0.466554
v -0.783203 12.206540 3.485595
v -1.666504 12.701420 3.003173
v 7.578125 10.676760 1.206542
v -9.094482 9.456299 1.090819
v 1.230957 -0.000000 -1.712402
v 2.621094 13.450680 0.055907
v 2.604248 12.597660 1.343017
v 1.995605 13.349120 2.204101
v 0.000000 5.095459 -1.142578
v -1.557129 5.320313 1.333252
v 0.000000 13.240720 -2.936524
v 0.000000 13.573490 -3.540772
v -2.848633 1.368408 0.260254
v -1.172607 11.742920 2.782714
v -0.462647 11.177980 -2.757569
v 1.547607 11.471680 -0.989991
v -2.301270 3.098877 -1.699463
v 2.539795 13.752200 -0.950441
v 3.792236 14.044680 -1.029298
vn 0.4555 -0.2726 0.8475
vn 0.8218 -0.1902 0.5370
vn 0.0190 -0.3774 0.9259
vn 0.0486 -0.8535 0.5188
vn -0.4694 -0.2787 0.8379
vn -0.8304 -0.1604 0.5335
vn 0.7595 0.5716 0.3106
vn 0.6883 0.1658 0.7062
vn -0.0000 0.7450 0.6671
vn -0.0000 0.1627 0.9867
vn -0.6883 0.1658 0.7062
vn -0.6660 0.1896 0.7215
vn 0.0573 -0.6519 0.7561
vn -0.0000 -0.6445 0.7646
vn 0.6660 0.1896 0.7215
vn 0.2856 -0.7752 0.5635
vn -0.2856 -0.7752 0.5635
vn -0.0573 -0.6519 0.7561
vn -0.7595 0.5716 0.3106
vn 0.0021 0.6997 0.7144
vn 0.0076 0.1152 0.9933
vn -0.5385 0.8391 -0.0769
vn -0.9887 0.1487 -0.0202
vn 0.0050 0.4832 -0.8755
vn 0.0238 0.2181 -0.9756
vn 0.5261 0.8466 -0.0806
vn 0.9928 0.1143 -0.0348
vn 0.5772 -0.2501 -0.7774
vn 0.0113 0.3358 -0.9419
vn 0.0548 -0.7767 -0.6275
vn 0.0129 0.3611 -0.9324
vn 0.0682 -0.7641 -0.6415
vn 0.0114 0.3555 -0.9346
vn 0.0420 -0.7736 -0.6323
vn -0.0010 0.3431 -0.9393
vn -0.0513 -0.9020 0.4287
vn 0.0293 -0.8033 0.5949
vn -0.0713 -0.7617 -0.6440
vn -0.0259 -0.7862 -0.6175
vn -0.0135 0.3576 -0.9338
vn 0.0019 0.3423 -0.9396
vn -0.0012 0.9985 0.0554
vn -0.0079 0.9998 -0.0157
vn -0.6116 -0.6830 -0.3993
vn 0.6698 -0.6859 -0.2843
vn -0.6557 -0.7433 0.1326
vn 0.6559 -0.7376 0.1605
vn -0.3209 -0.7058 0.6316
vn 0.3525 -0.7002 0.6208
vn -0.6698 -0.6859 -0.2843
vn 0.6116 -0.6831 -0.3992
vn -0.6559 -0.7376 0.1605
vn 0.6557 -0.7433 0.1327
vn -0.3525 -0.7002 0.6208
vn 0.3209 -0.7058 0.6316
vn -0.0560 -0.7773 -0.6266
vn -0.0139 0.3620 -0.9321
vn -0.5764 -0.2514 -0.7775
vn -0.0104 0.3364 -0.9417
vn -0.2630 -0.6661 0.6980
vn -0.0000 -0.5187 0.8550
vn -0.2841 -0.0826 0.9552
vn 0.2841 -0.0826 0.9552
vn -0.0000 0.5955 0.8034
vn 0.5452 0.2293 0.8064
vn 0.3085 0.8369 -0.4521
vn 0.7766 -0.0106 -0.6299
vn 0.5613 -0.6897 -0.4575
vn 0.5224 -0.8351 0.1723
vn 0.6188 -0.4695 0.6298
vn 0.3832 -0.7349 0.5595
vn 0.2630 -0.6661 0.6980
vn 0.1720 0.6313 -0.7562
vn 0.3187 0.9475 0.0267
vn 0.1353 -0.2339 -0.9628
vn -0.4694 0.4540 -0.7573
vn 0.2547 -0.8920 -0.3735
vn 0.1142 -0.7490 -0.6527
vn 0.2015 -0.9000 0.3866
vn -0.1620 -0.7767 0.6087
vn 0.1581 -0.2302 0.9602
vn 0.1168 0.6978 0.7067
vn -0.6506 0.1867 0.7361
vn -0.7221 0.6903 0.0459
vn -0.8065 0.1691 -0.5666
vn -0.0000 -0.3889 -0.9213
vn 0.7204 -0.0387 -0.6925
vn 0.0294 0.0385 -0.9988
vn -0.5606 0.0362 -0.8273
vn -0.8581 -0.0510 -0.5110
vn -0.9864 0.0353 0.1606
vn -0.9120 -0.2729 0.3062
vn -0.2571 -0.1080 0.9603
vn -0.2738 -0.3859 0.8810
vn 0.8766 0.0031 0.4811
vn -0.0000 -0.5395 0.8420
vn -0.0668 -0.7510 -0.6569
vn -0.1372 -0.0664 -0.9883
vn -0.9158 -0.0615 -0.3969
vn -0.8682 0.2076 0.4506
vn -0.9130 0.3497 0.2099
vn -0.3984 0.7413 0.5402
vn 0.0832 0.8183 0.5688
vn 0.3824 0.7675 0.5145
vn 0.9947 0.0946 0.0399
vn 0.8747 0.2525 0.4136
vn -0.0613 0.9960 -0.0646
vn 0.3521 0.7614 0.5443
vn -0.0000 0.5753 0.8180
vn -0.3521 0.7614 0.5443
vn -0.6121 0.4079 0.6775
vn -0.8342 -0.0311 0.5505
vn -0.9821 0.0984 0.1604
vn -0.8761 0.0079 -0.4820
vn -0.0000 0.9786 0.2058
vn -0.0000 0.4999 0.8661
vn 0.5463 0.8247 0.1462
vn 0.6239 0.3784 0.6838
vn 0.9251 0.3295 0.1890
vn 0.9197 -0.2140 0.3291
vn 0.8353 0.0157 -0.5495
vn 0.9842 -0.1387 0.1099
vn 0.5380 -0.6582 -0.5267
vn 0.4160 -0.3399 -0.8435
vn -0.0000 -0.6736 -0.7391
vn -0.6799 -0.0023 -0.7333
vn -0.1222 0.0927 -0.9882
vn 0.5829 0.0427 -0.8114
vn 0.7923 -0.0702 -0.6061
vn 0.9864 0.0353 0.1606
vn 0.0945 0.1318 0.9868
vn 0.9158 -0.0615 -0.3969
vn 0.9130 0.3497 0.2099
vn 0.8682 0.2076 0.4506
vn 0.3984 0.7413 0.5402
vn 0.0266 0.1050 0.9941
vn -0.3825 0.7675 0.5145
vn -0.8747 0.2524 0.4137
vn -0.9947 0.0946 0.0399
vn -0.9322 -0.2506 0.2613
vn -0.6379 -0.0268 0.7696
vn -0.0000 0.0784 0.9969
vn 0.6121 0.4079 0.6775
vn 0.8342 -0.0311 0.5505
vn -0.7243 -0.5666 -0.3929
vn 0.2260 0.9740 -0.0183
vn -0.4490 0.2167 0.8669
vn 0.4204 -0.9011 -0.1059
vn -0.0000 -0.9859 -0.1674
vn 0.6283 -0.4886 -0.6054
vn -0.1698 -0.5429 -0.8225
vn 0.5591 0.0707 -0.8261
vn -0.0000 -0.1805 -0.9836
vn -0.5591 0.0707 -0.8261
vn -0.4160 -0.3399 -0.8435
vn -0.5299 -0.5875 -0.6116
vn -0.0266 0.1050 0.9941
vn -0.6188 -0.4695 0.6298
vn -0.5452 0.2293 0.8064
vn -0.5224 -0.8351 0.1723
vn -0.5613 -0.6897 -0.4575
vn -0.7766 -0.0106 -0.6299
vn -0.3085 0.8369 -0.4521
vn -0.0000 -0.0222 0.9998
vn 0.8650 -0.1122 0.4890
vn 0.3932 0.7257 0.5646
vn 0.8729 0.4517 -0.1843
vn -0.0000 0.9923 -0.1235
vn -0.8729 0.4517 -0.1843
vn 0.7550 -0.5707 0.3230
vn 0.7243 -0.5666 -0.3929
vn 0.6506 0.1867 0.7361
vn 0.8065 0.1691 -0.5666
vn 0.7221 0.6903 0.0459
vn -0.1720 0.6313 -0.7562
vn -0.2260 0.9740 -0.0183
vn -0.3187 0.9475 0.0267
vn 0.4490 0.2167 0.8669
vn -0.3900 -0.3252 -0.8615
vn -0.8574 -0.1365 -0.4963
vn -0.3568 -0.0791 -0.9308
vn -0.3453 0.1679 -0.9234
vn -0.2270 0.5443 -0.8076
vn 0.0124 0.9999 -0.0108
vn 0.0008 0.9985 0.0549
vn -0.0421 0.2596 0.9648
vn -0.0232 0.1497 0.9885
vn 0.0400 -0.8966 0.4410
vn 0.0311 0.0693 0.9971
vn 0.1275 0.3482 0.9287
vn -0.0382 0.9986 -0.0358
vn -0.0000 -0.4287 0.9034
vn -0.4666 -0.5047 0.7263
vn -0.0000 -0.8267 0.5627
vn 0.4666 -0.5046 0.7263
vn 0.2737 -0.3857 0.8811
vn 0.9120 -0.2729 0.3062
vn 0.5299 -0.5875 -0.6116
vn 0.8917 -0.4501 0.0476
vn 0.5933 -0.7661 -0.2471
vn -0.0000 -0.9551 -0.2962
vn -0.5933 -0.7661 -0.2471
vn -0.1881 -0.9819 -0.0236
vn -0.5232 -0.8499 0.0618
vn 0.0613 0.9960 -0.0646
vn -0.0000 0.2146 -0.9767
vn 0.2270 0.5443 -0.8076
vn 0.3453 0.1679 -0.9234
vn 0.8761 0.0079 -0.4820
vn 0.0421 0.2596 0.9648
vn 0.0232 0.1497 0.9885
vn -0.0311 0.0693 0.9971
vn -0.1275 0.3482 0.9287
vn 0.1698 -0.5429 -0.8225
vn -0.6283 -0.4886 -0.6054
vn -0.4204 -0.9011 -0.1059
vn 0.7487 0.3749 0.5467
vn -0.0000 0.5636 0.8261
vn 0.7300 -0.2069 0.6514
vn -0.0000 0.0611 0.9981
vn -0.7300 -0.2069 0.6514
vn -0.8128 -0.2550 0.5238
vn 0.0933 -0.5423 -0.8350
vn 0.9370 -0.1951 -0.2898
vn 0.1372 -0.0663 -0.9883
vn 0.1222 0.0927 -0.9882
vn -0.7923 -0.0701 -0.6061
vn -0.7203 -0.0388 -0.6926
vn -0.8767 0.0031 0.4810
vn 0.2571 -0.1080 0.9603
vn -0.0000 -0.0685 -0.9976
vn -0.0000 -0.6600 -0.7513
vn -0.5380 -0.6582 -0.5267
vn 0.8581 -0.0510 -0.5110
vn 0.8574 -0.1365 -0.4963
vn 0.9322 -0.2506 0.2613
vn 0.9821 0.0984 0.1604
vn -0.8353 0.0157 -0.5495
vn -0.9842 -0.1387 0.1099
vn -0.9197 -0.2140 0.3291
vn -0.7853 -0.3513 0.5098
vn -0.8917 -0.4501 0.0476
vn -0.5967 -0.8010 0.0493
vn 0.1000 -0.2365 -0.9665
vn -0.7801 0.5466 -0.3044
vn -0.7487 0.3749 0.5467
vn -0.6239 0.3784 0.6838
vn -0.9251 0.3295 0.1890
vn -0.5463 0.8247 0.1462
vn -0.7645 0.6210 -0.1728
vn 0.4298 -0.7895 0.4383
vn -0.4298 -0.7895 0.4383
vn -0.8650 -0.1122 0.4890
vn -0.4504 0.5386 0.7120
vn -0.6742 -0.2662 0.6889
vn 0.1484 0.5966 0.7887
vn -0.3996 -0.4859 0.7773
vn 0.2874 -0.1556 0.9451
vn -0.2496 -0.9045 0.3459
vn 0.4679 -0.7913 0.3935
vn -0.7779 -0.2768 -0.5641
vn -0.4527 0.5129 -0.7294
vn -0.1897 -0.6834 -0.7050
vn 0.1576 0.5115 -0.8447
vn 0.3124 -0.6454 -0.6970
vn 0.4694 0.4540 -0.7573
vn -0.1142 -0.7490 -0.6527
vn 0.2982 0.8518 -0.4308
vn 0.7645 0.6210 -0.1728
vn 0.4309 0.5342 -0.7273
vn 0.1620 -0.7767 0.6087
vn -0.4109 -0.9091 -0.0690
vn 0.1881 -0.9819 -0.0236
vn 0.5232 -0.8499 0.0618
vn 0.8194 -0.5630 0.1080
vn -0.0933 -0.5423 -0.8350
vn -0.9370 -0.1951 -0.2898
vn -0.0946 0.1318 0.9868
vn -0.0832 0.8183 0.5688
vn 0.0668 -0.7510 -0.6569
vn -0.9511 -0.0187 0.3083
vn -0.8194 -0.5630 0.1080
vn -0.7276 -0.5005 0.4690
vn -0.8861 0.0272 0.4627
vn -0.9488 0.1459 0.2800
vn -0.7550 -0.5707 0.3230
vn -0.1168 0.6978 0.7067
vn -0.1581 -0.2302 0.9602
vn -0.2015 -0.9000 0.3866
vn -0.2547 -0.8920 -0.3735
vn -0.1353 -0.2339 -0.9628
vn 0.6379 -0.0268 0.7696
vn -0.3932 0.7257 0.5646
vn 0.8861 0.0272 0.4627
vn 0.9511 -0.0187 0.3083
vn 0.9488 0.1459 0.2800
vn 0.5967 -0.8010 0.0493
vn -0.1000 -0.2365 -0.9665
vn 0.9250 -0.2873 -0.2488
vn 0.7801 0.5466 -0.3044
vn 0.8128 -0.2550 0.5238
vn 0.7853 -0.3513 0.5098
vn -0.6497 0.0137 0.7601
vn -0.2982 0.8518 -0.4308
vn -0.4309 0.5342 -0.7273
vn 0.6497 0.0137 0.7601
vn 0.7276 -0.5005 0.4690
vn -0.9830 -0.1811 0.0294
vn -0.1484 0.5966 0.7887
vn 0.5887 0.8083 0.0096
vn 0.4527 0.5129 -0.7294
vn -0.3124 -0.6454 -0.6970
vn -0.1576 0.5115 -0.8447
vn 0.1897 -0.6834 -0.7050
vn -0.0000 0.6322 -0.7748
vn 0.2496 -0.9045 0.3459
vn 0.4109 -0.9091 -0.0690
vn 0.3996 -0.4859 0.7773
vn -0.2874 -0.1556 0.9451
vn -0.9250 -0.2873 -0.2488
vn 0.3568 -0.0791 -0.9308
vn 0.3900 -0.3252 -0.8615
vn 0.9830 -0.1810 0.0294
vn 0.6741 -0.2662 0.6890
vn -0.5888 0.8082 0.0096
vn 0.5607 0.0361 -0.8273
vn 0.0382 0.9986 -0.0358
vn -0.0000 -0.6276 -0.7785
vn -0.5829 0.0428 -0.8114
vn -0.0294 0.0386 -0.9988
vn 0.6799 -0.0023 -0.7333
vn -0.4679 -0.7913 0.3935
vn 0.4504 0.5386 0.7120
vn 0.7779 -0.2768 -0.5641
vn -0.3832 -0.7349 0.5595
vn -0.0256 -0.8058 0.5917
vt 0.990079 0.665660
vt 0.824906 0.773810
vt 0.498492 0.640590
vt 0.498492 0.715802
vt 0.006905 0.665660
vt 0.172079 0.773810
vt 0.655800 0.785116
vt 1.005809 0.811662
vt 0.498492 0.834275
vt 0.498492 0.943407
vt -0.008825 0.811662
vt 0.002973 0.936033
vt 0.931088 0.993549
vt 0.498492 1.016653
vt 0.997153 0.936389
vt 0.746252 0.530966
vt 0.250732 0.530966
vt 0.065896 0.993549
vt 0.341184 0.785116
vt 0.702597 0.488585
vt 0.702597 0.503234
vt 0.685019 0.487609
vt 0.690634 0.502745
vt 0.702597 0.488097
vt 0.702597 0.502745
vt 0.720420 0.487120
vt 0.714316 0.502745
vt 0.906943 0.458800
vt 0.888388 0.468077
vt 0.906211 0.368956
vt 0.888388 0.366027
vt 0.906211 0.367003
vt 0.888388 0.363585
vt 0.905722 0.295714
vt 0.888388 0.295226
vt 0.923301 0.366027
vt 0.928671 0.296202
vt 0.906211 0.366515
vt 0.905722 0.296202
vt 0.888632 0.363097
vt 0.888632 0.295714
vt 0.871298 0.360656
vt 0.871298 0.295226
vt 0.715781 0.021300
vt 0.735556 0.031066
vt 0.711875 0.110167
vt 0.734824 0.113097
vt 0.717978 0.120421
vt 0.729453 0.119933
vt 0.888632 0.366027
vt 0.906699 0.459288
vt 0.850058 0.122863
vt 0.865439 0.115538
vt 0.839560 0.091613
vt 0.865439 0.075988
vt 0.810507 0.060851
vt 0.798545 0.017394
vt 0.793173 0.044738
vt 0.798056 0.073546
vt 0.809287 0.078429
vt 0.816123 0.105284
vt 0.835166 0.110167
vt 0.874961 0.113585
vt 0.869345 0.078917
vt 0.893759 0.124327
vt 0.881064 0.116515
vt 0.908408 0.102355
vt 0.908896 0.105284
vt 0.908896 0.056945
vt 0.908896 0.051574
vt 0.894736 0.030577
vt 0.875693 0.038878
vt 0.883506 0.033507
vt 0.882285 0.114562
vt 0.869345 0.234191
vt 0.869590 0.197081
vt 0.894980 0.242980
vt 0.911093 0.200988
vt 0.921836 0.257628
vt 0.932578 0.197570
vt 0.937949 0.260558
vt 0.958701 0.201964
vt 0.959189 0.247374
vt 0.981406 0.193663
vt 0.977988 0.234679
vt 0.996787 0.194152
vt 0.993613 0.234191
vt 0.751914 0.026671
vt 0.751914 0.015441
vt 0.763877 0.008605
vt 0.751914 0.035460
vt 0.769492 0.032042
vt 0.772666 0.102843
vt 0.778037 0.072081
vt 0.778769 0.106749
vt 0.784873 0.085753
vt 0.779013 0.106749
vt 0.773154 0.057921
vt 0.773154 0.103331
vt 0.820517 0.426573
vt 0.793173 0.423156
vt 0.822226 0.384581
vt 0.760459 0.408995
vt 0.760459 0.330870
vt 0.815634 0.309874
vt 0.843466 0.293761
vt 0.842490 0.249327
vt 0.867881 0.282042
vt 0.867392 0.219542
vt 0.503134 0.496886
vt 0.503134 0.479796
vt 0.557090 0.460265
vt 0.564170 0.454894
vt 0.570517 0.463195
vt 0.571250 0.463683
vt 0.567832 0.478820
vt 0.570273 0.469542
vt 0.564902 0.480773
vt 0.566855 0.471984
vt 0.555869 0.482238
vt 0.870322 0.134581
vt 0.869590 0.180480
vt 0.892051 0.135070
vt 0.911582 0.183898
vt 0.917685 0.134581
vt 0.937949 0.134581
vt 0.958701 0.169249
vt 0.958457 0.134581
vt 0.978720 0.134093
vt 0.768515 0.127257
vt 0.751914 0.095031
vt 0.836875 0.189269
vt 0.814658 0.250304
vt 0.760459 0.248351
vt 0.908408 0.104796
vt 0.881064 0.032042
vt 0.528037 0.024230
vt 0.501425 0.008605
vt 0.522910 0.015929
vt 0.509482 0.011534
vt 0.525351 0.052062
vt 0.501425 0.049620
vt 0.501425 0.101378
vt 0.545127 0.123839
vt 0.541953 0.066222
vt 0.751914 0.106261
vt 0.751914 0.105773
vt 0.751914 0.094542
vt 0.603232 0.309386
vt 0.582724 0.298644
vt 0.592734 0.301085
vt 0.582236 0.279113
vt 0.603232 0.280577
vt 0.603232 0.257628
vt 0.623984 0.279601
vt 0.614707 0.259093
vt 0.617881 0.263976
vt 0.909629 0.059874
vt 0.671836 0.139952
vt 0.656455 0.162413
vt 0.672568 0.172179
vt 0.655478 0.200011
vt 0.678672 0.224425
vt 0.651816 0.254699
vt 0.678916 0.315245
vt 0.654502 0.313781
vt 0.670371 0.372863
vt 0.998496 0.294738
vt 0.998496 0.360656
vt 0.968466 0.297179
vt 0.965048 0.373839
vt 0.964560 0.384093
vt 0.968222 0.471007
vt 0.998496 0.467589
vt 0.760459 0.161437
vt 0.810752 0.162902
vt 0.760459 0.140929
vt 0.760459 0.136046
vt 0.809775 0.148742
vt 0.840048 0.147765
vt 0.640830 0.439757
vt 0.639853 0.439269
vt 0.638144 0.443663
vt 0.637412 0.441222
vt 0.637412 0.449034
vt 0.636679 0.449523
vt 0.635459 0.447081
vt 0.636679 0.443663
vt 0.664511 0.473937
vt 0.685019 0.487120
vt 0.702597 0.351378
vt 0.734824 0.372863
vt 0.726279 0.315245
vt 0.750693 0.320128
vt 0.753379 0.258117
vt 0.998740 0.295226
vt 0.998740 0.360656
vt 0.964316 0.384093
vt 0.968466 0.470519
vt 0.930869 0.456847
vt 0.969687 0.498839
vt 0.530966 0.217589
vt 0.503134 0.197570
vt 0.529257 0.154601
vt 0.503134 0.134093
vt 0.503134 0.203917
vt 0.527304 0.221495
vt 0.545615 0.222960
vt 0.534384 0.025695
vt 0.544150 0.034484
vt 0.773886 0.012023
vt 0.771445 0.024230
vt 0.555869 0.487120
vt 0.555869 0.485167
vt 0.863974 0.135070
vt 0.865683 0.175597
vt 0.567588 0.466124
vt 0.566123 0.459777
vt 0.639365 0.437804
vt 0.641806 0.436827
vt 0.643515 0.438292
vt 0.644492 0.433898
vt 0.644980 0.435363
vt 0.564170 0.454406
vt 0.568320 0.465636
vt 0.689902 0.015441
vt 0.687216 0.040831
vt 0.691855 0.040831
vt 0.696250 0.049132
vt 0.700644 0.040831
vt 0.705039 0.040831
vt 0.702597 0.015441
vt 0.902060 0.054992
vt 0.925498 0.060851
vt 0.899863 0.032042
vt 0.937216 0.039367
vt 0.928671 0.020812
vt 0.945029 0.027159
vt 0.945517 0.016417
vt 0.929160 0.068175
vt 0.905722 0.055968
vt 0.933798 0.045226
vt 0.899863 0.019835
vt 0.940146 0.009093
vt 0.900107 0.007140
vt 0.925254 0.006163
vt 0.523154 0.318175
vt 0.510703 0.308898
vt 0.514121 0.290831
vt 0.502890 0.288878
vt 0.509482 0.244933
vt 0.500937 0.244933
vt 0.523154 0.221984
vt 0.996298 0.056456
vt 0.987509 0.040343
vt 0.990927 0.085265
vt 0.974570 0.035949
vt 0.968222 0.064269
vt 0.967002 0.039855
vt 0.959433 0.029601
vt 0.638388 0.440245
vt 0.993613 0.134581
vt 0.706015 0.078917
vt 0.700156 0.043273
vt 0.681845 0.037413
vt 0.683310 0.024718
vt 0.661826 0.021788
vt 0.657676 0.008605
vt 0.595176 0.315245
vt 0.591269 0.376769
vt 0.624472 0.327452
vt 0.613974 0.380675
vt 0.641806 0.400206
vt 0.631064 0.439269
vt 0.623740 0.298644
vt 0.613486 0.301085
vt 0.598593 0.426573
vt 0.641806 0.434386
vt 0.642295 0.338683
vt 0.646445 0.310363
vt 0.692832 0.107238
vt 0.690146 0.080870
vt 0.674521 0.058409
vt 0.535605 0.308898
vt 0.532187 0.290831
vt 0.543418 0.288878
vt 0.536826 0.244933
vt 0.545371 0.244933
vt 0.661093 0.087218
vt 0.957236 0.067687
vt 0.956748 0.122374
vt 0.968222 0.122863
vt 0.907676 0.056945
vt 0.921347 0.057433
vt 0.907676 0.098449
vt 0.936240 0.087706
vt 0.933798 0.123351
vt 0.888388 0.502745
vt 0.871298 0.467589
vt 0.523154 0.232238
vt 0.577841 0.468566
vt 0.587851 0.445128
vt 0.589072 0.495909
vt 0.610556 0.440245
vt 0.623496 0.460265
vt 0.588584 0.263976
vt 0.591757 0.259093
vt 0.555869 0.456847
vt 0.571494 0.432921
vt 0.567832 0.326964
vt 0.974814 0.035949
vt 0.983847 0.128722
vt 0.937216 0.039855
vt 0.898886 0.015441
vt 0.912070 0.005187
vt 0.930625 0.457335
vt 0.640586 0.439269
vt 0.615683 0.487609
vt 0.623252 0.460265
vt 0.726523 0.224425
vt 0.749716 0.200011
vt 0.732627 0.172179
vt 0.957480 0.067687
vt 0.967246 0.039855
vt 0.503134 0.366027
vt 0.938437 0.129210
vt 0.955283 0.122374
vt 0.933310 0.071105
vt 0.954795 0.067687
vt 0.956748 0.031554
vt 0.871298 0.497374
vt 0.702597 0.158019
vt 0.908652 0.120909
vt 0.918418 0.122374
vt 0.935996 0.087706
vt 0.733359 0.139952
vt 0.748740 0.162413
vt 0.996787 0.188781
vt 0.969687 0.498351
vt 0.998740 0.468077
vt 0.998740 0.497374
vt 0.925498 0.061339
vt 0.740195 0.473937
vt 0.720176 0.487120
vt 0.933554 0.029601
vt 0.928916 0.068175
vt 0.696250 0.015441
vt 0.702597 0.136046
vt 0.945029 0.027648
vt 0.998496 0.497374
vt 0.871298 0.294738
vt 0.670615 0.100890
vt 0.928427 0.295714
vt 0.935507 0.059386
vt 0.936240 0.086730
vt 0.726035 0.009581
vt 0.894492 0.243468
vt 0.869345 0.235167
vt 0.896933 0.262023
vt 0.935996 0.086730
vt 0.932493 0.993712
vt 1.034813 0.988604
s 1
usemtl eye_tx
f 3/1/1 173/2/2 6/3/3
f 173/2/2 314/4/4 6/3/3
f 6/3/3 314/4/4 331/5/5
f 314/4/4 86/6/6 331/5/5
f 1/7/7 325/8/8 196/9/9
f 325/8/8 5/10/10 196/9/9
f 196/9/9 5/10/10 242/11/11
f 5/10/10 2/12/12 242/11/11
f 187/13/13 186/14/14 160/15/15
f 186/14/14 5/10/10 160/15/15
f 160/15/15 5/10/10 325/8/8
f 3/1/1 6/3/3 306/16/16
f 6/3/3 167/17/17 306/16/16
f 4/18/18 2/12/12 186/14/14
f 2/12/12 5/10/10 186/14/14
f 242/11/11 298/19/19 196/9/9
f 6/3/3 331/5/5 167/17/17
f 2/361/12 4/15/18 114/362/222
f 160/361/15 189/362/301 187/15/13
usemtl all_tx
f 245/20/20 7/21/21 8/22/22
f 7/21/21 9/23/23 8/22/22
f 8/22/22 9/23/23 261/24/24
f 9/23/23 10/25/25 261/24/24
f 261/24/24 10/25/25 51/26/26
f 10/25/25 11/27/27 51/26/26
f 51/26/26 11/27/27 245/20/20
f 11/27/27 7/21/21 245/20/20
f 12/28/28 185/29/29 13/30/30
f 185/29/29 14/31/31 13/30/30
f 13/30/30 14/31/31 15/32/32
f 14/31/31 295/33/33 15/32/32
f 15/32/32 295/33/33 16/34/34
f 295/33/33 17/35/35 16/34/34
f 228/36/36 252/37/37 24/38/38
f 252/37/37 18/39/39 24/38/38
f 24/38/38 18/39/39 19/40/40
f 18/39/39 20/41/41 19/40/40
f 19/40/40 20/41/41 258/42/42
f 20/41/41 21/43/43 258/42/42
f 22/44/44 149/45/45 62/46/46
f 149/45/45 118/47/47 62/46/46
f 62/46/46 118/47/47 287/48/48
f 118/47/47 288/49/49 287/48/48
f 77/45/50 158/44/51 23/47/52
f 158/44/51 73/46/53 23/47/52
f 23/47/52 73/46/53 76/49/54
f 73/46/53 74/48/55 76/49/54
f 24/38/38 19/40/40 25/30/56
f 19/40/40 232/50/57 25/30/56
f 25/30/56 232/50/57 26/51/58
f 232/50/57 229/29/59 26/51/58
f 27/52/60 308/53/61 318/54/62
f 308/53/61 33/54/63 318/54/62
f 318/54/62 33/54/63 80/55/64
f 33/54/63 31/56/65 80/55/64
f 80/55/64 31/56/65 28/57/66
f 31/56/65 29/58/67 28/57/66
f 28/57/66 29/58/67 80/55/64
f 29/58/67 315/59/68 80/55/64
f 80/55/64 315/59/68 30/60/69
f 315/59/68 31/56/65 30/60/69
f 30/60/69 31/56/65 32/61/70
f 31/56/65 33/54/63 32/61/70
f 32/61/70 33/54/63 34/62/71
f 33/54/63 309/52/72 34/62/71
f 66/63/73 35/64/74 65/65/75
f 35/64/74 36/66/76 65/65/75
f 65/65/75 36/66/76 37/67/77
f 36/66/76 202/68/78 37/67/77
f 37/67/77 202/68/78 38/69/79
f 202/68/78 241/70/80 38/69/79
f 38/69/79 241/70/80 39/71/81
f 241/70/80 40/72/82 39/71/81
f 39/71/81 40/72/82 41/73/83
f 40/72/82 67/64/84 41/73/83
f 41/73/83 67/64/84 156/74/85
f 326/75/86 42/76/87 43/77/88
f 42/76/87 234/78/89 43/77/88
f 43/77/88 234/78/89 44/79/90
f 234/78/89 212/80/91 44/79/90
f 44/79/90 212/80/91 45/81/92
f 212/80/91 46/82/93 45/81/92
f 45/81/92 46/82/93 327/83/94
f 46/82/93 147/84/95 327/83/94
f 327/83/94 147/84/95 102/85/96
f 147/84/95 42/86/87 102/85/96
f 102/85/96 42/86/87 326/87/86
f 158/88/51 322/89/97 47/90/98
f 322/89/97 77/91/50 47/90/98
f 47/90/98 77/91/50 55/92/99
f 77/91/50 274/93/100 55/92/99
f 55/92/99 274/93/100 48/94/101
f 274/93/100 275/95/102 48/94/101
f 48/94/101 275/95/102 58/96/103
f 275/95/102 276/97/104 58/96/103
f 58/96/103 276/97/104 157/98/105
f 276/97/104 49/99/106 157/98/105
f 50/100/107 51/101/26 64/102/108
f 51/101/26 245/103/20 64/102/108
f 64/102/108 245/103/20 63/104/109
f 245/103/20 244/102/110 63/104/109
f 63/104/109 244/102/110 52/105/111
f 244/102/110 227/106/112 52/105/111
f 52/105/111 227/106/112 53/107/113
f 227/106/112 26/108/58 53/107/113
f 53/107/113 26/108/58 221/109/114
f 199/110/115 215/111/116 254/112/117
f 215/111/116 217/113/118 254/112/117
f 254/112/117 217/113/118 255/114/119
f 217/113/118 54/115/120 255/114/119
f 255/114/119 54/115/120 256/116/121
f 54/115/120 165/117/122 256/116/121
f 256/116/121 165/117/122 122/118/123
f 165/117/122 335/119/124 122/118/123
f 122/118/123 335/119/124 328/120/125
f 55/121/99 302/122/126 56/123/127
f 302/122/126 301/124/128 56/123/127
f 56/123/127 301/124/128 57/125/129
f 301/124/128 223/80/130 57/125/129
f 57/125/129 223/80/130 157/126/105
f 223/80/130 169/127/131 157/126/105
f 157/126/105 169/127/131 58/128/103
f 169/127/131 48/129/101 58/128/103
f 146/92/132 271/94/133 59/93/134
f 271/94/133 272/95/135 59/93/134
f 59/93/134 272/95/135 60/130/136
f 272/95/135 273/97/137 60/130/136
f 60/130/136 273/97/137 61/99/138
f 273/97/137 330/98/139 61/99/138
f 61/99/138 330/98/139 62/131/46
f 330/98/139 22/88/44 62/131/46
f 221/109/114 220/132/140 53/107/113
f 220/132/140 219/133/141 53/107/113
f 53/107/113 219/133/141 52/105/111
f 219/133/141 98/134/142 52/105/111
f 52/105/111 98/134/142 63/104/109
f 98/134/142 177/105/143 63/104/109
f 63/104/109 177/105/143 64/102/108
f 177/105/143 204/106/144 64/102/108
f 37/67/77 155/135/145 65/65/75
f 155/135/145 156/74/85 65/65/75
f 65/65/75 156/74/85 66/63/73
f 156/74/85 67/64/84 66/63/73
f 66/63/73 67/64/84 284/64/146
f 67/64/84 40/72/82 284/64/146
f 284/64/146 40/72/82 182/136/147
f 40/72/82 241/70/80 182/136/147
f 333/137/148 197/138/149 68/139/150
f 197/138/149 69/140/151 68/139/150
f 68/139/150 69/140/151 70/141/152
f 69/140/151 110/142/153 70/141/152
f 70/141/152 110/142/153 328/143/125
f 110/142/153 71/141/154 328/143/125
f 328/143/125 71/141/154 72/144/155
f 71/141/154 198/145/156 72/144/155
f 158/88/51 157/98/105 73/131/53
f 157/98/105 49/99/106 73/131/53
f 73/131/53 49/99/106 74/146/55
f 49/99/106 75/130/157 74/146/55
f 74/146/55 75/130/157 76/147/54
f 75/130/157 274/93/100 76/147/54
f 76/147/54 274/93/100 23/148/52
f 274/93/100 77/91/50 23/148/52
f 280/61/158 319/56/159 78/60/160
f 319/56/159 79/59/161 78/60/160
f 78/60/160 79/59/161 80/55/64
f 79/59/161 313/58/162 80/55/64
f 80/55/64 313/58/162 81/57/163
f 313/58/162 319/56/159 81/57/163
f 81/57/163 319/56/159 80/55/64
f 319/56/159 318/54/62 80/55/64
f 82/149/164 83/150/165 291/151/166
f 83/150/165 195/152/167 291/151/166
f 291/151/166 195/152/167 84/153/168
f 195/152/167 196/154/9 84/153/168
f 84/153/168 196/154/9 85/155/169
f 196/154/9 298/156/19 85/155/169
f 85/155/169 298/156/19 86/157/6
f 87/158/170 304/135/171 88/73/172
f 304/135/171 89/74/173 88/73/172
f 88/73/172 89/74/173 90/64/174
f 89/74/173 91/63/175 90/64/174
f 90/64/174 91/63/175 180/64/176
f 91/63/175 317/64/177 180/64/176
f 180/64/176 317/64/177 92/136/178
f 43/159/88 44/160/90 93/161/179
f 44/160/90 222/162/180 93/161/179
f 93/161/179 222/162/180 233/163/181
f 222/162/180 221/164/114 233/163/181
f 233/163/181 221/164/114 243/165/182
f 221/164/114 26/166/58 243/165/182
f 243/165/182 26/166/58 230/167/183
f 294/168/184 94/169/185 95/170/186
f 94/169/185 96/171/187 95/170/186
f 95/170/186 96/171/187 299/36/188
f 96/171/187 316/172/189 299/36/188
f 299/36/188 316/172/189 97/173/190
f 316/172/189 94/169/185 97/173/190
f 97/173/190 94/169/185 293/174/191
f 98/134/142 219/133/141 99/175/192
f 219/133/141 100/176/193 99/175/192
f 99/175/192 100/176/193 101/177/194
f 100/176/193 102/178/96 101/177/194
f 101/177/194 102/178/96 175/176/195
f 102/178/96 103/179/196 175/176/195
f 175/176/195 103/179/196 121/180/197
f 117/181/198 194/182/199 333/183/148
f 194/182/199 104/184/200 333/183/148
f 333/183/148 104/184/200 197/185/149
f 104/184/200 105/186/201 197/185/149
f 197/185/149 105/186/201 206/184/202
f 105/186/201 153/187/203 206/184/202
f 206/184/202 153/187/203 207/188/204
f 106/189/205 8/190/22 230/167/183
f 8/190/22 261/20/24 230/167/183
f 230/167/183 261/20/24 107/191/206
f 261/20/24 260/192/207 107/191/206
f 107/191/206 260/192/207 208/193/208
f 260/192/207 12/194/28 208/193/208
f 208/193/208 12/194/28 209/195/209
f 21/196/43 108/170/210 258/197/42
f 108/170/210 253/171/211 258/197/42
f 258/197/42 253/171/211 109/198/212
f 253/171/211 228/36/36 109/198/212
f 109/198/212 228/36/36 257/199/213
f 228/36/36 227/200/112 257/199/213
f 257/199/213 227/200/112 244/201/110
f 69/140/151 197/138/149 110/142/153
f 197/138/149 332/140/214 110/142/153
f 110/142/153 332/140/214 71/141/154
f 332/140/214 111/139/215 71/141/154
f 71/141/154 111/139/215 145/137/216
f 111/139/215 197/138/149 145/137/216
f 216/202/217 214/203/218 188/204/219
f 214/203/218 112/205/220 188/204/219
f 188/204/219 112/205/220 186/206/14
f 112/205/220 113/204/221 186/206/14
f 186/206/14 113/204/221 4/207/18
f 113/204/221 114/208/222 4/207/18
f 68/139/150 70/141/152 333/137/148
f 70/141/152 115/209/223 333/137/148
f 333/137/148 115/209/223 116/210/224
f 115/209/223 70/141/152 116/210/224
f 116/210/224 70/141/152 117/145/198
f 70/141/152 335/144/124 117/145/198
f 288/147/49 118/148/47 59/93/134
f 118/148/47 149/91/45 59/93/134
f 59/93/134 149/91/45 146/92/132
f 149/91/45 119/90/225 146/92/132
f 146/92/132 119/90/225 120/211/226
f 119/90/225 151/212/227 120/211/226
f 326/87/86 235/86/228 102/85/96
f 235/86/228 170/84/229 102/85/96
f 102/85/96 170/84/229 103/83/196
f 170/84/229 168/82/230 103/83/196
f 103/83/196 168/82/230 121/81/197
f 168/82/230 223/80/130 121/81/197
f 256/116/121 122/118/123 190/213/231
f 122/118/123 329/214/232 190/213/231
f 190/213/231 329/214/232 126/118/233
f 329/214/232 328/120/125 126/118/233
f 126/118/233 328/120/125 72/119/155
f 240/215/234 123/216/235 124/132/236
f 123/216/235 209/109/209 124/132/236
f 124/132/236 209/109/209 125/107/237
f 209/109/209 12/108/28 125/107/237
f 125/107/237 12/108/28 204/106/144
f 190/213/231 126/118/233 172/116/238
f 126/118/233 130/117/239 172/116/238
f 172/116/238 130/117/239 249/115/240
f 130/117/239 251/217/241 249/115/240
f 249/115/240 251/217/241 114/218/222
f 127/182/242 247/219/243 198/181/156
f 247/219/243 128/220/244 198/181/156
f 198/181/156 128/220/244 72/221/155
f 128/220/244 129/222/245 72/221/155
f 72/221/155 129/222/245 130/223/239
f 114/218/222 201/224/246 249/115/240
f 201/224/246 131/113/247 249/115/240
f 249/115/240 131/113/247 248/114/248
f 131/113/247 200/112/249 248/114/248
f 248/114/248 200/112/249 171/225/250
f 173/226/2 83/227/165 132/228/251
f 83/227/165 82/229/164 132/228/251
f 132/228/251 82/229/164 277/230/252
f 82/229/164 289/231/253 277/230/252
f 277/230/252 289/231/253 86/232/6
f 133/233/254 321/234/255 237/235/256
f 321/234/255 143/236/257 237/235/256
f 237/235/256 143/236/257 236/237/258
f 143/236/257 141/238/259 236/237/258
f 236/237/258 141/238/259 134/239/260
f 218/240/261 135/241/262 179/242/263
f 135/241/262 136/243/264 179/242/263
f 179/242/263 136/243/264 137/244/265
f 136/243/264 238/245/266 137/244/265
f 137/244/265 238/245/266 269/246/267
f 199/247/115 254/248/117 138/249/268
f 254/248/117 139/250/269 138/249/268
f 138/249/268 139/250/269 193/251/270
f 139/250/269 256/252/121 193/251/270
f 193/251/270 256/252/121 190/253/231
f 140/254/271 134/255/260 269/256/267
f 134/255/260 141/257/259 269/256/267
f 269/256/267 141/257/259 142/258/272
f 141/257/259 143/259/257 142/258/272
f 142/258/272 143/259/257 321/260/255
f 153/187/203 105/186/201 144/187/273
f 105/186/201 104/184/200 144/187/273
f 144/187/273 104/184/200 225/188/274
f 104/184/200 226/261/275 225/188/274
f 145/137/216 312/209/276 71/141/154
f 312/209/276 311/210/277 71/141/154
f 71/141/154 311/210/277 198/145/156
f 311/210/277 145/137/216 198/145/156
f 146/262/132 147/84/95 271/129/133
f 147/84/95 211/127/278 271/129/133
f 271/129/133 211/127/278 148/128/279
f 211/127/278 330/126/139 148/128/279
f 149/91/45 150/89/280 119/90/225
f 150/89/280 22/88/44 119/90/225
f 119/90/225 22/88/44 151/212/227
f 22/88/44 330/98/139 151/212/227
f 166/263/281 205/264/282 152/265/283
f 205/264/282 207/266/204 152/265/283
f 152/265/283 207/266/204 167/267/17
f 207/266/204 153/268/203 167/267/17
f 127/269/242 166/270/281 250/271/284
f 166/270/281 154/272/285 250/271/284
f 250/271/284 154/272/285 114/273/222
f 154/272/285 2/274/12 114/273/222
f 38/69/79 39/71/81 296/158/286
f 39/71/81 41/73/83 296/158/286
f 296/158/286 41/73/83 155/135/145
f 41/73/83 156/74/85 155/135/145
f 157/98/105 158/88/51 57/212/129
f 158/88/51 47/90/98 57/212/129
f 57/212/129 47/90/98 56/211/127
f 47/90/98 55/92/99 56/211/127
f 90/64/174 181/72/287 88/73/172
f 181/72/287 270/71/288 88/73/172
f 88/73/172 270/71/288 87/158/170
f 270/71/288 305/69/289 87/158/170
f 269/68/267 238/66/266 303/67/290
f 238/66/266 159/65/291 303/67/290
f 303/67/290 159/65/291 304/135/171
f 159/65/291 89/74/173 304/135/171
f 101/177/194 175/176/195 99/175/192
f 175/176/195 176/133/292 99/175/192
f 99/175/192 176/133/292 98/134/142
f 176/133/292 177/105/143 98/134/142
f 86/157/6 289/275/253 85/155/169
f 289/275/253 290/276/293 85/155/169
f 85/155/169 290/276/293 84/153/168
f 290/276/293 291/151/166 84/153/168
f 194/269/199 323/271/294 324/270/295
f 323/271/294 163/272/296 324/270/295
f 324/270/295 163/272/296 325/277/8
f 163/272/296 160/274/15 325/277/8
f 194/182/199 117/181/198 161/219/297
f 117/181/198 292/220/298 161/219/297
f 161/219/297 292/220/298 162/278/299
f 292/220/298 336/222/300 162/278/299
f 160/274/15 163/272/296 189/273/301
f 163/272/296 323/271/294 189/273/301
f 189/273/301 323/271/294 164/279/302
f 323/271/294 165/280/122 164/279/302
f 242/281/11 166/263/281 297/282/303
f 166/263/281 152/265/283 297/282/303
f 297/282/303 152/265/283 331/283/5
f 152/265/283 167/267/17 331/283/5
f 223/80/130 168/82/230 169/127/131
f 168/82/230 170/84/229 169/127/131
f 169/127/131 170/84/229 48/129/101
f 170/84/229 55/262/99 48/129/101
f 200/284/249 286/285/304 171/286/250
f 286/285/304 192/287/305 171/286/250
f 171/286/250 192/287/305 172/288/238
f 192/287/305 190/253/231 172/288/238
f 173/289/2 3/283/1 174/282/306
f 3/283/1 224/265/307 174/282/306
f 174/282/306 224/265/307 324/263/295
f 224/265/307 226/264/275 324/263/295
f 175/176/195 124/132/236 176/133/292
f 124/132/236 125/107/237 176/133/292
f 176/133/292 125/107/237 177/105/143
f 125/107/237 204/106/144 177/105/143
f 321/260/255 178/290/308 142/258/272
f 178/290/308 218/291/261 142/258/272
f 142/258/272 218/291/261 179/292/263
f 90/64/174 180/64/176 181/72/287
f 180/64/176 92/136/178 181/72/287
f 181/72/287 92/136/178 140/70/271
f 182/293/147 320/294/309 35/295/74
f 320/294/309 183/296/310 35/295/74
f 35/295/74 183/296/310 262/297/311
f 202/246/78 36/245/76 184/244/312
f 36/245/76 263/243/313 184/244/312
f 184/244/312 263/243/313 268/242/314
f 12/28/28 260/298/207 185/29/29
f 260/298/207 293/299/191 185/29/29
f 185/29/29 293/299/191 94/42/185
f 112/205/220 214/203/218 113/204/221
f 214/203/218 201/202/246 113/204/221
f 113/204/221 201/202/246 114/208/222
f 186/206/14 187/207/13 188/204/219
f 187/207/13 189/208/301 188/204/219
f 188/204/219 189/208/301 216/202/217
f 193/251/270 190/253/231 191/300/315
f 190/253/231 192/287/305 191/300/315
f 191/300/315 192/287/305 193/251/270
f 194/301/199 161/302/297 323/303/294
f 161/302/297 162/304/299 323/303/294
f 323/303/294 162/304/299 336/305/300
f 83/150/165 173/306/2 195/152/167
f 173/306/2 1/307/7 195/152/167
f 195/152/167 1/307/7 196/154/9
f 197/185/149 206/184/202 145/183/216
f 206/184/202 127/182/242 145/183/216
f 145/183/216 127/182/242 198/181/156
f 199/308/115 200/112/249 215/111/116
f 200/112/249 131/309/247 215/111/116
f 215/111/116 131/309/247 201/310/246
f 282/311/316 202/256/78 203/258/317
f 202/256/78 184/312/312 203/258/317
f 203/258/317 184/312/312 268/292/314
f 213/313/318 320/235/309 281/237/319
f 320/235/309 182/314/147 281/237/319
f 281/237/319 182/314/147 241/315/80
f 15/32/32 299/36/188 13/30/30
f 299/36/188 204/316/144 13/30/30
f 13/30/30 204/316/144 12/28/28
f 166/317/281 127/182/242 205/261/282
f 127/182/242 206/184/202 205/261/282
f 205/261/282 206/184/202 207/188/204
f 130/318/239 129/319/245 250/303/284
f 129/319/245 246/304/320 250/303/284
f 250/303/284 246/304/320 247/302/243
f 208/193/208 209/195/209 307/320/321
f 209/195/209 123/321/235 307/320/321
f 307/320/321 123/321/235 210/322/322
f 147/84/95 46/82/93 211/127/278
f 46/82/93 212/80/91 211/127/278
f 211/127/278 212/80/91 330/126/139
f 265/323/323 259/260/324 203/258/317
f 259/260/324 213/324/318 203/258/317
f 203/258/317 213/324/318 282/311/316
f 201/310/246 214/325/218 215/111/116
f 214/325/218 216/310/217 215/111/116
f 215/111/116 216/310/217 217/309/118
f 135/326/262 218/327/261 264/328/325
f 218/327/261 178/329/308 264/328/325
f 264/328/325 178/329/308 321/330/255
f 219/133/141 220/132/140 100/176/193
f 220/132/140 45/180/92 100/176/193
f 100/176/193 45/180/92 327/179/94
f 221/109/114 222/216/180 220/132/140
f 222/216/180 44/215/90 220/132/140
f 220/132/140 44/215/90 45/180/92
f 301/124/128 300/78/326 223/80/130
f 300/78/326 240/79/234 223/80/130
f 223/80/130 240/79/234 121/81/197
f 3/283/1 306/267/16 224/265/307
f 306/267/16 225/266/274 224/265/307
f 224/265/307 225/266/274 226/264/275
f 26/51/58 227/200/112 25/30/56
f 227/200/112 228/36/36 25/30/56
f 25/30/56 228/36/36 24/38/38
f 26/51/58 229/29/59 230/298/183
f 229/29/59 231/299/327 230/298/183
f 230/298/183 231/299/327 106/331/205
f 231/299/327 229/29/59 258/42/42
f 229/29/59 232/50/57 258/42/42
f 258/42/42 232/50/57 19/40/40
f 93/161/179 233/163/181 278/332/328
f 233/163/181 307/320/321 278/332/328
f 278/332/328 307/320/321 210/322/322
f 234/78/89 334/124/329 212/80/91
f 334/124/329 151/125/227 212/80/91
f 212/80/91 151/125/227 330/126/139
f 240/79/234 300/78/326 239/77/330
f 300/78/326 235/76/228 239/77/330
f 239/77/330 235/76/228 326/75/86
f 134/239/260 140/315/271 236/237/258
f 140/315/271 92/314/178 236/237/258
f 236/237/258 92/314/178 237/235/256
f 238/333/266 136/334/264 317/295/177
f 136/334/264 135/297/262 317/295/177
f 317/295/177 135/297/262 264/335/325
f 239/336/330 210/322/322 240/337/234
f 210/322/322 123/321/235 240/337/234
f 42/86/87 147/84/95 285/338/331
f 147/84/95 146/262/132 285/338/331
f 241/254/80 202/256/78 283/255/332
f 202/256/78 282/311/316 283/255/332
f 166/270/281 242/277/11 154/272/285
f 242/277/11 2/274/12 154/272/285
f 230/167/183 107/191/206 243/165/182
f 107/191/206 208/193/208 243/165/182
f 106/100/205 244/102/110 8/101/22
f 244/102/110 245/103/20 8/101/22
f 129/222/245 128/220/244 246/278/320
f 128/220/244 247/219/243 246/278/320
f 171/225/250 172/116/238 248/114/248
f 172/116/238 249/115/240 248/114/248
f 299/36/188 97/173/190 204/316/144
f 97/173/190 64/339/108 204/316/144
f 185/29/29 94/42/185 14/31/31
f 94/42/185 295/33/33 14/31/31
f 130/280/239 250/271/284 251/279/241
f 250/271/284 114/273/222 251/279/241
f 252/37/37 228/36/36 108/170/210
f 228/36/36 253/171/211 108/170/210
f 231/340/327 257/199/213 106/341/205
f 257/199/213 244/201/110 106/341/205
f 254/112/117 255/114/119 139/225/269
f 255/114/119 256/116/121 139/225/269
f 109/198/212 257/199/213 258/197/42
f 257/199/213 231/340/327 258/197/42
f 217/113/118 216/224/217 54/115/120
f 216/224/217 189/218/301 54/115/120
f 266/233/333 320/235/309 259/342/324
f 320/235/309 213/313/318 259/342/324
f 50/343/107 260/192/207 51/344/26
f 260/192/207 261/20/24 51/344/26
f 262/297/311 263/334/313 35/295/74
f 263/334/313 36/333/76 35/295/74
f 92/293/178 317/295/177 237/294/256
f 317/295/177 264/335/325 237/294/256
f 265/329/323 183/328/310 259/330/324
f 183/328/310 266/345/333 259/330/324
f 262/326/311 183/328/310 267/327/334
f 183/328/310 265/329/323 267/327/334
f 267/346/334 268/242/314 262/241/311
f 268/242/314 263/243/313 262/241/311
f 89/74/173 159/65/291 91/63/175
f 159/65/291 317/64/177 91/63/175
f 179/292/263 137/312/265 142/258/272
f 137/312/265 269/256/267 142/258/272
f 140/70/271 269/68/267 305/69/289
f 269/68/267 303/67/290 305/69/289
f 181/72/287 140/70/271 270/71/288
f 140/70/271 305/69/289 270/71/288
f 271/94/133 148/96/279 272/95/135
f 148/96/279 273/97/137 272/95/135
f 274/93/100 75/130/157 275/95/102
f 75/130/157 276/97/104 275/95/102
f 86/232/6 314/347/4 277/230/252
f 314/347/4 132/228/251 277/230/252
f 268/292/314 267/291/334 203/258/317
f 267/291/334 265/323/323 203/258/317
f 93/161/179 278/332/328 326/348/86
f 278/332/328 210/322/322 326/348/86
f 27/52/60 318/54/62 279/62/335
f 318/54/62 280/61/158 279/62/335
f 213/313/318 281/237/319 282/349/316
f 281/237/319 283/239/332 282/349/316
f 240/215/234 124/132/236 121/180/197
f 124/132/236 175/176/195 121/180/197
f 182/136/147 35/64/74 284/64/146
f 35/64/74 66/63/73 284/64/146
f 146/121/132 120/123/226 285/122/331
f 120/123/226 334/124/329 285/122/331
f 138/249/268 286/285/304 199/247/115
f 286/285/304 200/284/249 199/247/115
f 287/146/48 288/147/49 60/130/136
f 288/147/49 59/93/134 60/130/136
f 289/275/253 82/149/164 290/276/293
f 82/149/164 291/151/166 290/276/293
f 62/131/46 287/146/48 61/99/138
f 287/146/48 60/130/136 61/99/138
f 165/117/122 54/115/120 164/217/302
f 54/115/120 189/218/301 164/217/302
f 235/86/228 302/338/126 170/84/229
f 302/338/126 55/262/99 170/84/229
f 117/181/198 335/221/124 292/220/298
f 335/221/124 336/222/300 292/220/298
f 64/339/108 97/173/190 50/350/107
f 97/173/190 293/174/191 50/350/107
f 104/184/200 194/182/199 226/261/275
f 194/182/199 324/317/295 226/261/275
f 42/76/87 285/122/331 334/124/329 234/78/89
f 94/42/185 294/351/184 17/35/35 295/33/33
f 37/67/77 38/69/79 296/158/286 155/135/145
f 193/251/270 192/287/305 286/285/304 138/249/268
f 297/282/303 86/289/6 298/352/19 242/281/11
f 16/34/34 310/353/336 299/36/188 15/32/32
f 235/76/228 300/78/326 301/124/128 302/122/126
f 303/67/290 304/135/171 87/158/170 305/69/289
f 144/268/273 306/267/16 167/267/17 153/268/203
f 174/282/306 325/281/8 1/352/7 173/289/2
f 307/320/321 233/163/181 243/165/182 208/193/208
f 308/53/61 309/52/72 33/54/63
f 299/36/188 310/353/336 95/170/186
f 145/137/216 311/210/277 312/209/276
f 293/299/191 260/298/207 50/331/107
f 319/56/159 313/58/162 79/59/161
f 314/347/4 173/226/2 132/228/251
f 31/56/65 315/59/68 29/58/67
f 96/171/187 94/169/185 316/172/189
f 238/66/266 317/64/177 159/65/291
f 280/61/158 318/54/62 319/56/159
f 266/354/333 183/355/310 320/294/309
f 264/328/325 321/330/255 133/345/254
f 158/44/51 77/45/50 322/356/97
f 239/357/330 326/358/86 210/359/322
f 133/354/254 237/294/256 264/360/325
f 49/99/106 276/97/104 75/130/157
f 144/268/273 225/266/274 306/267/16
f 165/318/122 323/303/294 336/305/300
f 174/282/306 324/263/295 325/281/8
f 326/358/86 43/357/88 93/359/179
f 100/176/193 327/179/94 102/178/96
f 22/44/44 150/356/280 149/45/45
f 328/120/125 329/214/232 122/118/123
f 148/96/279 330/98/139 273/97/137
f 297/282/303 331/283/5 86/289/6
f 250/303/284 247/302/243 127/301/242
f 328/143/125 335/144/124 70/141/152
f 111/139/215 332/140/214 197/138/149
f 333/137/148 116/210/224 117/145/198
f 120/123/226 151/125/227 334/124/329
f 126/118/233 72/119/155 130/117/239
f 283/239/332 281/237/319 241/315/80
f 335/221/124 165/223/122 336/222/300
