# Wavefront OBJ file
# Exported by Maverick Model 3D 1.3.12
# Sun Jun 07 07:18:08 2020

mtllib wakaba.mtl

# 67 Vertices
v 1.500977 5.117185 14.937257
v 2.838867 3.901365 12.661866
v 2.011719 5.2666 12.593507
v 0.0 3.962889 9.218507
v 0.0 5.693357 12.562257
v -2.011719 5.2666 12.593507
v 0.0 5.855466 13.799562
v -1.500977 5.117185 14.937257
v 0.0 5.372068 14.897218
v 0.0 3.947263 15.56421
v 2.118164 3.940427 14.913819
v 1.500977 2.880857 14.937256
v 2.011719 2.532224 12.611084
v 0.0 2.122068 13.923584
v 0.0 2.16992 12.611084
v -2.011719 2.532224 12.611084
v -2.838867 3.901365 12.661866
v 0.0 2.595701 15.02417
v -1.500977 2.880857 14.937256
v -2.118164 3.940427 14.913819
v 3.464844 10.655272 6.268312
v 6.336914 5.875976 7.100343
v 2.525391 10.838866 3.977297
v 4.390625 5.875977 1.798585
v 0.0 6.586914 0.036866
v 4.529297 2.657226 1.396241
v 0.0 2.657227 0.039795
v 6.671875 2.779296 7.214601
v 4.865234 0.718749 6.90503
v 2.485352 0.597656 2.123779
v -2.485352 0.597656 2.123779
v -4.529297 2.657226 1.396241
v -0.68457 13.579101 5.305422
v 0.0 14.509765 5.847414
v -3.334961 13.873046 7.653079
v -3.290039 16.030273 5.250735
v -6.089844 14.042968 5.250735
v -3.322266 13.873047 2.728274
v -3.464844 10.655272 6.268312
v -2.525391 10.838866 3.977297
v -6.336914 5.875976 7.100343
v -4.390625 5.875977 1.798585
v -6.671875 2.779296 7.214601
v 0.68457 13.579101 5.305422
v 0.0 14.516601 4.79175
v 3.322266 13.873047 2.728274
v 3.290039 16.030273 5.250735
v 6.089844 14.042968 5.250735
v 3.334961 13.873046 7.653079
v -4.865234 0.718749 6.90503
v 0.0 -0.138673 6.389404
v -4.375 6.372069 9.69214
v -4.727539 2.711912 10.258545
v 0.0 6.586912 12.05249
v 0.0 3.127928 13.071046
v 4.727539 2.711912 10.258545
v 0.0 2.716796 5.971436
v -3.329102 13.162108 5.438234
v 3.329102 13.162108 5.438234
v 0.0 0.718748 10.593506
v 3.290039 0.718749 9.17749
v -3.290039 0.718749 9.17749
v 0.0 10.838867 2.79175
v 4.375 6.372069 9.69214
v -2.021484 10.655272 9.090578
v 2.021484 10.655272 9.090578
v 0.0 11.902343 5.614016

# 366 Texture Coordinates
vt 0.764362 0.80225
vt 1.0 0.476589
vt 0.854317 0.842271
vt 1.0 0.476589
vt 0.5 0.493069
vt 0.854317 0.842271
vt 0.854317 0.842271
vt 0.5 0.493069
vt 0.5 0.956579
vt 0.5 0.493069
vt 0.145683 0.842271
vt 0.5 0.956579
vt 0.5 0.956579
vt 0.145683 0.842271
vt 0.5 1.0
vt 0.145683 0.842271
vt 0.235638 0.80225
vt 0.5 1.0
vt 0.5 1.0
vt 0.235638 0.80225
vt 0.5 0.870521
vt 0.235638 0.80225
vt 0.5 0.488883
vt 0.5 0.870521
vt 0.5 0.870521
vt 0.5 0.488883
vt 0.764362 0.80225
vt 0.5 0.488883
vt 0.873065 0.487052
vt 0.764362 0.80225
vt 0.764362 0.80225
vt 0.873065 0.487052
vt 1.0 0.476589
vt 0.873065 0.487052
vt 0.764362 0.203244
vt 1.0 0.476589
vt 1.0 0.476589
vt 0.764362 0.203244
vt 0.854317 0.109861
vt 0.764362 0.203244
vt 0.5 0.0
vt 0.854317 0.109861
vt 0.854317 0.109861
vt 0.5 0.0
vt 0.5 0.012817
vt 0.5 0.0
vt 0.145683 0.109861
vt 0.5 0.012817
vt 0.5 0.012817
vt 0.145683 0.109861
vt 0.5 0.493069
vt 0.145683 0.109861
vt 0.0 0.476589
vt 0.5 0.493069
vt 0.5 0.493069
vt 0.0 0.476589
vt 0.145683 0.842271
vt 0.0 0.476589
vt 0.235638 0.80225
vt 0.145683 0.842271
vt 0.873065 0.487052
vt 0.5 0.488883
vt 0.764362 0.203244
vt 0.5 0.488883
vt 0.5 0.126864
vt 0.764362 0.203244
vt 0.764362 0.203244
vt 0.5 0.126864
vt 0.5 0.0
vt 0.5 0.126864
vt 0.235638 0.203244
vt 0.5 0.0
vt 0.5 0.0
vt 0.235638 0.203244
vt 0.145683 0.109861
vt 0.235638 0.203244
vt 0.0 0.476589
vt 0.145683 0.109861
vt 0.5 0.126864
vt 0.5 0.488883
vt 0.235638 0.203244
vt 0.5 0.488883
vt 0.126935 0.487052
vt 0.235638 0.203244
vt 0.235638 0.203244
vt 0.126935 0.487052
vt 0.0 0.476589
vt 0.126935 0.487052
vt 0.235638 0.80225
vt 0.0 0.476589
vt 1.0 0.476589
vt 0.854317 0.109861
vt 0.5 0.493069
vt 0.854317 0.109861
vt 0.5 0.012817
vt 0.5 0.493069
vt 0.5 0.956579
vt 0.5 1.0
vt 0.854317 0.842271
vt 0.5 1.0
vt 0.764362 0.80225
vt 0.854317 0.842271
vt 0.5 0.870521
vt 0.764362 0.80225
vt 0.5 1.0
vt 0.235638 0.80225
vt 0.126935 0.487052
vt 0.5 0.488883
vt 0.525573 0.624054
vt 0.525573 0.580109
vt 0.525573 0.624054
vt 0.525573 0.580109
vt 0.525573 0.580109
vt 0.525573 0.624054
vt 0.525573 0.624054
vt 0.525573 0.580109
vt 0.535339 0.580109
vt 0.525573 0.580109
vt 0.525573 0.539093
vt 0.535339 0.580109
vt 0.535339 0.580109
vt 0.525573 0.539093
vt 0.525573 0.539093
vt 1.05194 0.134797
vt 1.049987 0.023468
vt 1.048034 0.134797
vt 1.049987 0.023468
vt 1.046081 0.023468
vt 1.048034 0.134797
vt 1.048034 0.134797
vt 1.046081 0.023468
vt 1.042175 0.134797
vt 1.046081 0.023468
vt 1.039245 0.023468
vt 1.042175 0.134797
vt 1.042175 0.134797
vt 1.039245 0.023468
vt 1.037292 0.134797
vt 1.136901 0.539093
vt 1.087096 0.543
vt 1.125182 0.522492
vt 1.087096 0.543
vt 0.979675 0.526398
vt 1.125182 0.522492
vt 1.125182 0.522492
vt 0.979675 0.526398
vt 1.128112 0.512726
vt 0.979675 0.526398
vt 1.129089 0.522492
vt 1.128112 0.512726
vt 0.525573 0.624054
vt 0.525573 0.624054
vt 0.525573 0.580109
vt 0.525573 0.624054
vt 0.525573 0.580109
vt 0.525573 0.580109
vt 0.525573 0.580109
vt 0.525573 0.580109
vt 0.525573 0.530304
vt 0.525573 0.580109
vt 0.525573 0.539093
vt 0.525573 0.530304
vt 1.134948 0.539093
vt 1.087096 0.543
vt 1.129089 0.522492
vt 1.087096 0.543
vt 0.979675 0.526398
vt 1.129089 0.522492
vt 1.129089 0.522492
vt 0.979675 0.526398
vt 1.128112 0.512726
vt 0.979675 0.526398
vt 1.125182 0.522492
vt 1.128112 0.512726
vt 1.048034 0.014679
vt 1.048034 0.014679
vt 1.049011 0.015656
vt 1.048034 0.014679
vt 1.049011 0.014679
vt 1.049011 0.015656
vt 1.049011 0.015656
vt 1.049011 0.014679
vt 1.049011 0.014679
vt 0.525573 0.539093
vt 0.525573 0.539093
vt 0.535339 0.580109
vt 0.525573 0.539093
vt 0.525573 0.580109
vt 0.535339 0.580109
vt 0.535339 0.580109
vt 0.525573 0.580109
vt 0.525573 0.624054
vt 0.805846 0.365265
vt 0.83319 0.131867
vt 0.490417 0.358429
vt 0.83319 0.131867
vt 0.480651 0.147492
vt 0.490417 0.358429
vt 0.490417 0.358429
vt 0.480651 0.147492
vt 0.83319 0.131867
vt 1.146667 0.470734
vt 1.010925 0.492218
vt 1.010925 0.44632
vt 1.010925 0.492218
vt 1.146667 0.470734
vt 1.010925 0.44632
vt 1.361511 0.370148
vt 1.363464 0.370148
vt 1.362487 0.389679
vt 1.363464 0.370148
vt 1.361511 0.370148
vt 1.362487 0.389679
vt 1.363464 0.370148
vt 1.362487 0.389679
vt 1.361511 0.370148
vt 1.362487 0.389679
vt 1.363464 0.370148
vt 1.361511 0.370148
vt 0.979675 0.526398
vt 1.087096 0.543
vt 1.125182 0.522492
vt 1.087096 0.543
vt 1.136901 0.539093
vt 1.125182 0.522492
vt 1.02362 0.357453
vt 1.02655 0.147492
vt 0.816589 0.365265
vt 1.02655 0.147492
vt 0.83026 0.13382
vt 0.816589 0.365265
vt 1.89569 0.512726
vt 1.892761 0.512726
vt 1.890807 0.530304
vt 1.892761 0.512726
vt 1.890807 0.512726
vt 1.890807 0.530304
vt 1.89569 0.516633
vt 1.892761 0.516633
vt 1.893737 0.53714
vt 1.892761 0.516633
vt 1.890807 0.516633
vt 1.893737 0.53714
vt 0.480651 0.147492
vt 0.563659 0.00882
vt 0.832214 0.113312
vt 0.563659 0.00882
vt 0.788268 0.00882
vt 0.832214 0.113312
vt 1.89569 0.512726
vt 1.890807 0.530304
vt 1.892761 0.512726
vt 1.890807 0.530304
vt 1.890807 0.512726
vt 1.892761 0.512726
vt 0.788268 0.00882
vt 0.563659 0.00882
vt 0.832214 0.113312
vt 0.563659 0.00882
vt 0.480651 0.147492
vt 0.832214 0.113312
vt 1.890807 0.516633
vt 1.892761 0.516633
vt 1.893737 0.53714
vt 1.892761 0.516633
vt 1.89569 0.516633
vt 1.893737 0.53714
vt 1.032409 0.138703
vt 1.037292 0.134797
vt 1.035339 0.023468
vt 1.037292 0.134797
vt 1.039245 0.023468
vt 1.035339 0.023468
vt 1.134948 0.539093
vt 1.129089 0.522492
vt 1.087096 0.543
vt 1.129089 0.522492
vt 0.979675 0.526398
vt 1.087096 0.543
vt 1.046081 0.020539
vt 1.046081 0.023468
vt 1.047057 0.020539
vt 1.046081 0.023468
vt 1.048034 0.020539
vt 1.047057 0.020539
vt 1.048034 0.020539
vt 1.046081 0.023468
vt 1.047057 0.020539
vt 1.046081 0.023468
vt 1.046081 0.020539
vt 1.047057 0.020539
vt 0.525573 0.580109
vt 0.525573 0.539093
vt 0.525573 0.580109
vt 0.525573 0.539093
vt 0.525573 0.539093
vt 0.525573 0.580109
vt 0.525573 0.624054
vt 0.525573 0.624054
vt 0.535339 0.580109
vt 0.525573 0.624054
vt 0.525573 0.624054
vt 0.535339 0.580109
vt 0.83026 0.13382
vt 1.02655 0.147492
vt 0.816589 0.365265
vt 1.02655 0.147492
vt 1.02362 0.357453
vt 0.816589 0.365265
vt 0.524596 0.623078
vt 0.524596 0.623078
vt 0.524596 0.579133
vt 0.524596 0.623078
vt 0.525573 0.579133
vt 0.524596 0.579133
vt 0.525573 0.579133
vt 0.524596 0.623078
vt 0.524596 0.579133
vt 0.524596 0.623078
vt 0.524596 0.623078
vt 0.524596 0.579133
vt 1.566589 0.147492
vt 1.566589 0.147492
vt 1.566589 0.007843
vt 1.566589 0.147492
vt 1.566589 0.147492
vt 1.566589 0.007843
vt 0.805846 0.358429
vt 0.490417 0.358429
vt 0.61737 0.584015
vt 0.490417 0.358429
vt 0.61737 0.584015
vt 0.61737 0.584015
vt 1.566589 0.147492
vt 1.566589 0.007843
vt 1.566589 0.147492
vt 1.566589 0.007843
vt 1.566589 0.147492
vt 1.566589 0.147492
vt 1.567565 0.147492
vt 1.568542 0.007843
vt 1.567565 0.147492
vt 1.568542 0.007843
vt 1.568542 0.147492
vt 1.567565 0.147492
vt 1.568542 0.147492
vt 1.568542 0.147492
vt 1.568542 0.007843
vt 1.009948 1.13675
vt 1.040221 1.021515
vt 1.196471 1.112336
vt 0.814635 1.009797
vt 0.8078 1.113312
vt 1.015807 1.019562
vt 0.83319 0.131867
vt 0.805846 0.365265
vt 0.490417 0.358429
vt 1.008971 1.13675
vt 1.196471 1.112336
vt 1.040221 1.021515
vt 0.814635 1.009797
vt 1.015807 1.019562
vt 0.8078 1.113312
vt 0.61737 0.584015
vt 0.490417 0.358429
vt 0.805846 0.358429

# 366 Vertex Normals
vn 0.496618 0.659202 0.564644
vn 0.999462 -0.006297 -0.0322
vn 0.519645 0.834585 -0.182857
vn 0.999462 -0.006297 -0.0322
vn 0.506416 0.280168 -0.815505
vn 0.519645 0.834585 -0.182857
vn 0.519645 0.834585 -0.182857
vn 0.202134 0.616488 -0.760976
vn 0.0 0.954084 -0.29954
vn -0.202134 0.616488 -0.760976
vn -0.519645 0.834585 -0.182857
vn 0.0 0.954084 -0.29954
vn 0.0 0.954084 -0.29954
vn -0.519645 0.834585 -0.182857
vn -0.0 0.989579 0.143991
vn -0.519645 0.834585 -0.182857
vn -0.496618 0.659202 0.564644
vn -0.0 0.989579 0.143991
vn -0.0 0.989579 0.143991
vn -0.496618 0.659202 0.564644
vn 0.0 0.71398 0.700167
vn -0.496618 0.659202 0.564644
vn 0.0 0.011092 0.999938
vn 0.0 0.71398 0.700167
vn 0.0 0.71398 0.700167
vn 0.0 0.011092 0.999938
vn 0.496618 0.659202 0.564644
vn 0.0 0.011092 0.999938
vn 0.682018 -0.014971 0.731182
vn 0.496618 0.659202 0.564644
vn 0.496618 0.659202 0.564644
vn 0.682018 -0.014971 0.731182
vn 0.999462 -0.006297 -0.0322
vn 0.682018 -0.014971 0.731182
vn 0.500526 -0.643198 0.579457
vn 0.999462 -0.006297 -0.0322
vn 0.999462 -0.006297 -0.0322
vn 0.500526 -0.643198 0.579457
vn 0.504434 -0.851593 -0.142602
vn 0.500526 -0.643198 0.579457
vn 0.0 -0.980575 0.196145
vn 0.504434 -0.851593 -0.142602
vn 0.504434 -0.851593 -0.142602
vn 0.0 -0.980575 0.196145
vn 0.0 -0.96595 -0.258728
vn 0.0 -0.980575 0.196145
vn -0.504434 -0.851593 -0.142603
vn 0.0 -0.96595 -0.258728
vn 0.0 -0.96595 -0.258728
vn -0.504434 -0.851593 -0.142603
vn -0.202667 -0.613642 -0.763132
vn -0.504434 -0.851593 -0.142603
vn -0.999462 -0.006297 -0.0322
vn -0.512935 -0.280009 -0.811476
vn -0.506416 0.280168 -0.815505
vn -0.999462 -0.006297 -0.0322
vn -0.519645 0.834585 -0.182857
vn -0.999462 -0.006297 -0.0322
vn -0.496618 0.659202 0.564644
vn -0.519645 0.834585 -0.182857
vn 0.682018 -0.014971 0.731182
vn 0.0 0.011092 0.999938
vn 0.500526 -0.643198 0.579457
vn 0.0 0.011092 0.999938
vn -0.0 -0.696065 0.717979
vn 0.500526 -0.643198 0.579457
vn 0.500526 -0.643198 0.579457
vn -0.0 -0.696065 0.717979
vn 0.0 -0.980575 0.196145
vn -0.0 -0.696065 0.717979
vn -0.500526 -0.643198 0.579457
vn 0.0 -0.980575 0.196145
vn 0.0 -0.980575 0.196145
vn -0.500526 -0.643198 0.579457
vn -0.504434 -0.851593 -0.142603
vn -0.500526 -0.643198 0.579457
vn -0.999462 -0.006297 -0.0322
vn -0.504434 -0.851593 -0.142603
vn -0.0 -0.696065 0.717979
vn 0.0 0.011092 0.999938
vn -0.500526 -0.643198 0.579457
vn 0.0 0.011092 0.999938
vn -0.682018 -0.014971 0.731182
vn -0.500526 -0.643198 0.579457
vn -0.500526 -0.643198 0.579457
vn -0.682018 -0.014971 0.731182
vn -0.999462 -0.006297 -0.0322
vn -0.682018 -0.014971 0.731182
vn -0.496618 0.659202 0.564644
vn -0.999462 -0.006297 -0.0322
vn 0.999462 -0.006297 -0.0322
vn 0.504434 -0.851593 -0.142602
vn 0.512935 -0.280009 -0.811476
vn 0.504434 -0.851593 -0.142602
vn 0.0 -0.96595 -0.258728
vn 0.202667 -0.613642 -0.763132
vn 0.0 0.954084 -0.29954
vn -0.0 0.989579 0.143991
vn 0.519645 0.834585 -0.182857
vn -0.0 0.989579 0.143991
vn 0.496618 0.659202 0.564644
vn 0.519645 0.834585 -0.182857
vn 0.0 0.71398 0.700167
vn 0.496618 0.659202 0.564644
vn -0.0 0.989579 0.143991
vn -0.496618 0.659202 0.564644
vn -0.682018 -0.014971 0.731182
vn 0.0 0.011092 0.999938
vn 0.663805 0.734736 0.139735
vn 0.93166 0.362885 0.018018
vn 0.542762 0.69114 -0.477215
vn 0.93166 0.362885 0.018018
vn 0.762188 0.271512 -0.587665
vn 0.542762 0.69114 -0.477215
vn 0.542762 0.69114 -0.477215
vn 0.762188 0.271512 -0.587665
vn -0.0 0.311676 -0.950188
vn 0.762188 0.271512 -0.587665
vn 0.632443 -0.324407 -0.703403
vn -0.0 0.311676 -0.950188
vn -0.0 0.311676 -0.950188
vn 0.632443 -0.324407 -0.703403
vn -0.0 -0.384923 -0.922948
vn 0.980177 -0.161372 0.114947
vn 0.541973 -0.838362 0.058434
vn 0.632443 -0.324407 -0.703403
vn 0.541973 -0.838362 0.058434
vn 0.23027 -0.86342 -0.448866
vn 0.632443 -0.324407 -0.703403
vn 0.632443 -0.324407 -0.703403
vn 0.23027 -0.86342 -0.448866
vn -0.0 -0.384923 -0.922948
vn 0.23027 -0.86342 -0.448866
vn -0.23027 -0.86342 -0.448866
vn -0.0 -0.384923 -0.922948
vn -0.0 -0.384923 -0.922948
vn -0.23027 -0.86342 -0.448866
vn -0.632443 -0.324407 -0.703403
vn 0.178301 -0.951585 0.250388
vn -0.0 -0.436818 0.89955
vn 0.107989 -0.899998 0.422305
vn 0.0 0.751821 0.659368
vn 0.133147 0.97131 0.197052
vn -0.134992 0.738489 0.660615
vn -0.134992 0.738489 0.660615
vn -0.10175 0.969808 0.221627
vn -0.578782 0.815415 0.010494
vn -0.090977 0.975675 -0.199451
vn -0.121753 0.755097 -0.644209
vn -0.578782 0.815415 0.010494
vn -0.663805 0.734736 0.139735
vn -0.542762 0.69114 -0.477215
vn -0.93166 0.362885 0.018018
vn -0.542762 0.69114 -0.477215
vn -0.762188 0.271512 -0.587665
vn -0.93166 0.362885 0.018018
vn -0.93166 0.362885 0.018018
vn -0.762188 0.271512 -0.587665
vn -0.980177 -0.161372 0.114947
vn -0.762188 0.271512 -0.587665
vn -0.632443 -0.324407 -0.703403
vn -0.980177 -0.161372 0.114947
vn -0.204151 -0.953055 -0.223627
vn 0.0 -0.467093 -0.884208
vn -0.12262 -0.915833 -0.382379
vn -0.0 0.726173 -0.687512
vn -0.131124 0.976142 -0.173067
vn 0.121753 0.755097 -0.644209
vn 0.121753 0.755097 -0.644209
vn 0.090977 0.975675 -0.199451
vn 0.578782 0.815415 0.010494
vn 0.10175 0.969808 0.221627
vn 0.134992 0.738489 0.660615
vn 0.578782 0.815415 0.010494
vn -0.541973 -0.838362 0.058434
vn -0.23027 -0.86342 -0.448866
vn -0.0 -0.998901 0.046868
vn -0.23027 -0.86342 -0.448866
vn 0.23027 -0.86342 -0.448866
vn -0.0 -0.998901 0.046868
vn -0.0 -0.998901 0.046868
vn 0.23027 -0.86342 -0.448866
vn 0.541973 -0.838362 0.058434
vn -0.0 -0.384923 -0.922948
vn -0.632443 -0.324407 -0.703403
vn -0.0 0.311676 -0.950188
vn -0.632443 -0.324407 -0.703403
vn -0.762188 0.271512 -0.587665
vn -0.0 0.311676 -0.950188
vn -0.0 0.311676 -0.950188
vn -0.762188 0.271512 -0.587665
vn -0.542762 0.69114 -0.477215
vn -0.706873 0.315237 0.633211
vn -0.607896 -0.328773 0.722753
vn 0.0 0.348908 0.937157
vn -0.607896 -0.328773 0.722753
vn 0.0 -0.280851 0.959751
vn 0.0 0.348908 0.937157
vn 0.0 0.348908 0.937157
vn 0.0 -0.280851 0.959751
vn 0.607896 -0.328773 0.722753
vn 0.016568 0.999784 0.012546
vn -0.134879 0.828417 -0.54363
vn -0.159308 0.830995 0.532981
vn 0.134879 0.828417 -0.54363
vn -0.016568 0.999784 0.012546
vn 0.159308 0.830995 0.532981
vn 0.007221 -0.692608 0.721278
vn 0.099663 0.24484 0.964428
vn 0.0 0.010516 0.999945
vn -0.099663 0.24484 0.964428
vn -0.007221 -0.692608 0.721278
vn 0.0 0.010516 0.999945
vn -0.041932 -0.714287 -0.698596
vn 0.0 -0.099479 -0.99504
vn 0.099465 0.208428 -0.972967
vn 0.0 -0.099479 -0.99504
vn 0.041932 -0.714287 -0.698596
vn -0.099465 0.208428 -0.972967
vn -0.133147 0.97131 0.197052
vn 0.0 0.751821 0.659368
vn 0.134992 0.738489 0.660615
vn -0.0 -0.436818 0.89955
vn -0.178301 -0.951585 0.250388
vn -0.107989 -0.899998 0.422305
vn -0.93166 0.362885 0.018018
vn -0.980177 -0.161372 0.114947
vn -0.706873 0.315237 0.633211
vn -0.980177 -0.161372 0.114947
vn -0.607896 -0.328773 0.722753
vn -0.706873 0.315237 0.633211
vn 0.107989 -0.899998 0.422305
vn -0.076568 -0.99673 0.025802
vn 0.178301 -0.951585 0.250388
vn -0.076568 -0.99673 0.025802
vn 0.12262 -0.915833 -0.382379
vn 0.204151 -0.953055 -0.223627
vn -0.107989 -0.899998 0.422305
vn 0.076568 -0.99673 0.025802
vn 0.305344 -0.951947 0.023699
vn 0.076568 -0.99673 0.025802
vn -0.12262 -0.915833 -0.382379
vn 0.305344 -0.951947 0.023699
vn 0.0 -0.280851 0.959751
vn 0.0 -0.820686 0.571379
vn 0.607896 -0.328773 0.722753
vn 0.0 -0.820686 0.571379
vn 0.31217 -0.866604 0.38929
vn 0.607896 -0.328773 0.722753
vn -0.107989 -0.899998 0.422305
vn -0.178301 -0.951585 0.250388
vn 0.076568 -0.99673 0.025802
vn -0.204151 -0.953055 -0.223627
vn -0.12262 -0.915833 -0.382379
vn 0.076568 -0.99673 0.025802
vn -0.31217 -0.866604 0.38929
vn 0.0 -0.820686 0.571379
vn -0.607896 -0.328773 0.722753
vn 0.0 -0.820686 0.571379
vn 0.0 -0.280851 0.959751
vn -0.607896 -0.328773 0.722753
vn 0.12262 -0.915833 -0.382379
vn -0.076568 -0.99673 0.025802
vn -0.305344 -0.951947 0.023699
vn -0.076568 -0.99673 0.025802
vn 0.107989 -0.899998 0.422305
vn -0.305344 -0.951947 0.023699
vn -0.980177 -0.161372 0.114947
vn -0.632443 -0.324407 -0.703403
vn -0.541973 -0.838362 0.058434
vn -0.632443 -0.324407 -0.703403
vn -0.23027 -0.86342 -0.448866
vn -0.541973 -0.838362 0.058434
vn 0.204151 -0.953055 -0.223627
vn 0.12262 -0.915833 -0.382379
vn 0.0 -0.467093 -0.884208
vn -0.121753 0.755097 -0.644209
vn 0.131124 0.976142 -0.173067
vn -0.0 0.726173 -0.687512
vn 0.0 -0.820686 0.571379
vn -0.0 -0.998901 0.046868
vn 0.31217 -0.866604 0.38929
vn -0.0 -0.998901 0.046868
vn 0.541973 -0.838362 0.058434
vn 0.31217 -0.866604 0.38929
vn -0.541973 -0.838362 0.058434
vn -0.0 -0.998901 0.046868
vn -0.31217 -0.866604 0.38929
vn -0.0 -0.998901 0.046868
vn 0.0 -0.820686 0.571379
vn -0.31217 -0.866604 0.38929
vn 0.93166 0.362885 0.018018
vn 0.980177 -0.161372 0.114947
vn 0.762188 0.271512 -0.587665
vn 0.980177 -0.161372 0.114947
vn 0.632443 -0.324407 -0.703403
vn 0.762188 0.271512 -0.587665
vn -0.542762 0.69114 -0.477215
vn 0.0 0.78476 -0.6198
vn -0.0 0.311676 -0.950188
vn 0.0 0.78476 -0.6198
vn 0.542762 0.69114 -0.477215
vn -0.0 0.311676 -0.950188
vn 0.607896 -0.328773 0.722753
vn 0.980177 -0.161372 0.114947
vn 0.706873 0.315237 0.633211
vn 0.980177 -0.161372 0.114947
vn 0.93166 0.362885 0.018018
vn 0.706873 0.315237 0.633211
vn -0.347626 0.747243 0.566379
vn -0.663805 0.734736 0.139735
vn -0.706873 0.315237 0.633211
vn -0.663805 0.734736 0.139735
vn -0.93166 0.362885 0.018018
vn -0.706873 0.315237 0.633211
vn 0.93166 0.362885 0.018018
vn 0.663805 0.734736 0.139735
vn 0.706873 0.315237 0.633211
vn 0.663805 0.734736 0.139735
vn 0.347626 0.747243 0.566379
vn 0.706873 0.315237 0.633211
vn 0.663805 0.734736 0.139735
vn 0.542762 0.69114 -0.477215
vn -0.0 0.999622 -0.027506
vn 0.542762 0.69114 -0.477215
vn 0.0 0.78476 -0.6198
vn -0.0 0.999622 -0.027506
vn -0.706873 0.315237 0.633211
vn 0.0 0.348908 0.937157
vn -0.347626 0.747243 0.566379
vn 0.0 0.348908 0.937157
vn 0.347626 0.747243 0.566379
vn -0.347626 0.747243 0.566379
vn -0.663805 0.734736 0.139735
vn -0.0 0.999622 -0.027506
vn -0.542762 0.69114 -0.477215
vn -0.0 0.999622 -0.027506
vn 0.0 0.78476 -0.6198
vn -0.542762 0.69114 -0.477215
vn 0.663805 0.734736 0.139735
vn -0.0 0.999622 -0.027506
vn 0.347626 0.747243 0.566379
vn -0.0 0.999622 -0.027506
vn -0.347626 0.747243 0.566379
vn 0.347626 0.747243 0.566379
vn -0.663805 0.734736 0.139735
vn -0.347626 0.747243 0.566379
vn -0.0 0.999622 -0.027506
vn -0.980177 -0.161372 0.114947
vn -0.541973 -0.838362 0.058434
vn -0.607896 -0.328773 0.722753
vn -0.31217 -0.866604 0.38929
vn -0.607896 -0.328773 0.722753
vn -0.541973 -0.838362 0.058434
vn 0.607896 -0.328773 0.722753
vn 0.706873 0.315237 0.633211
vn 0.0 0.348908 0.937157
vn 0.980177 -0.161372 0.114947
vn 0.607896 -0.328773 0.722753
vn 0.541973 -0.838362 0.058434
vn 0.31217 -0.866604 0.38929
vn 0.541973 -0.838362 0.058434
vn 0.607896 -0.328773 0.722753
vn 0.347626 0.747243 0.566379
vn 0.0 0.348908 0.937157
vn 0.706873 0.315237 0.633211

# , 36 grouped triangles

usemtl mat_waka_nose
o 
g 

f 1/1/1 2/2/2 3/3/3
f 2/4/4 4/5/5 3/6/6
f 3/7/7 4/8/8 5/9/9
f 4/10/10 6/11/11 5/12/12
f 5/13/13 6/14/14 7/15/15
f 6/16/16 8/17/17 7/18/18
f 7/19/19 8/20/20 9/21/21
f 8/22/22 10/23/23 9/24/24
f 9/25/25 10/26/26 1/27/27
f 10/28/28 11/29/29 1/30/30
f 1/31/31 11/32/32 2/33/33
f 11/34/34 12/35/35 2/36/36
f 2/37/37 12/38/38 13/39/39
f 12/40/40 14/41/41 13/42/42
f 13/43/43 14/44/44 15/45/45
f 14/46/46 16/47/47 15/48/48
f 15/49/49 16/50/50 4/51/51
f 16/52/52 17/53/53 4/54/54
f 4/55/55 17/56/56 6/57/57
f 17/58/58 8/59/59 6/60/60
f 11/61/61 10/62/62 12/63/63
f 10/64/64 18/65/65 12/66/66
f 12/67/67 18/68/68 14/69/69
f 18/70/70 19/71/71 14/72/72
f 14/73/73 19/74/74 16/75/75
f 19/76/76 17/77/77 16/78/78
f 18/79/79 10/80/80 19/81/81
f 10/82/82 20/83/83 19/84/84
f 19/85/85 20/86/86 17/87/87
f 20/88/88 8/89/89 17/90/90
f 2/91/91 13/92/92 4/93/93
f 13/94/94 15/95/95 4/96/96
f 5/97/97 7/98/98 3/99/99
f 7/100/100 1/101/101 3/102/102
f 9/103/103 1/104/104 7/105/105
f 8/106/106 20/107/107 10/108/108
# 2, 86 grouped triangles

usemtl mat_wakaba_chan
o 2
g 2

f 21/109/109 22/110/110 23/111/111
f 22/112/112 24/113/113 23/114/114
f 23/115/115 24/116/116 25/117/117
f 24/118/118 26/119/119 25/120/120
f 25/121/121 26/122/122 27/123/123
f 28/124/124 29/125/125 26/126/126
f 29/127/127 30/128/128 26/129/129
f 26/130/130 30/131/131 27/132/132
f 30/133/133 31/134/134 27/135/135
f 27/136/136 31/137/137 32/138/138
f 33/139/139 34/140/140 35/141/141
f 34/142/142 36/143/143 35/144/144
f 35/145/145 36/146/146 37/147/147
f 36/148/148 38/149/149 37/150/150
f 39/151/151 40/152/152 41/153/153
f 40/154/154 42/155/155 41/156/156
f 41/157/157 42/158/158 43/159/159
f 42/160/160 32/161/161 43/162/162
f 44/163/163 45/164/164 46/165/165
f 45/166/166 47/167/167 46/168/168
f 46/169/169 47/170/170 48/171/171
f 47/172/172 49/173/173 48/174/174
f 50/175/175 31/176/176 51/177/177
f 31/178/178 30/179/179 51/180/180
f 51/181/181 30/182/182 29/183/183
f 27/184/184 32/185/185 25/186/186
f 32/187/187 42/188/188 25/189/189
f 25/190/190 42/191/191 40/192/192
f 52/193/193 53/194/194 54/195/195
f 53/196/196 55/197/197 54/198/198
f 54/199/199 55/200/200 56/201/201
f 47/202/202 45/203/203 34/204/204
f 45/205/205 36/206/206 34/207/207
f 44/208/208 34/209/209 57/210/210
f 34/211/211 33/212/212 57/213/213
f 44/214/214 57/215/215 45/216/216
f 57/217/217 33/218/218 45/219/219
f 47/220/220 34/221/221 49/222/222
f 34/223/223 44/224/224 49/225/225
f 41/226/226 43/227/227 52/228/228
f 43/229/229 53/230/230 52/231/231
f 35/232/232 58/233/233 33/234/234
f 58/235/235 38/236/236 33/237/237
f 49/238/238 59/239/239 48/240/240
f 59/241/241 46/242/242 48/243/243
f 55/244/244 60/245/245 56/246/246
f 60/247/247 61/248/248 56/249/249
f 49/250/250 44/251/251 59/252/252
f 44/253/253 46/254/254 59/255/255
f 62/256/256 60/257/257 53/258/258
f 60/259/259 55/260/260 53/261/261
f 38/262/262 58/263/263 37/264/264
f 58/265/265 35/266/266 37/267/267
f 43/268/268 32/269/269 50/270/270
f 32/271/271 31/272/272 50/273/273
f 33/274/274 38/275/275 45/276/276
f 38/277/277 36/278/278 45/279/279
f 60/280/280 51/281/281 61/282/282
f 51/283/283 29/284/284 61/285/285
f 50/286/286 51/287/287 62/288/288
f 51/289/289 60/290/290 62/291/291
f 22/292/292 28/293/293 24/294/294
f 28/295/295 26/296/296 24/297/297
f 40/298/298 63/299/299 25/300/300
f 63/301/301 23/302/302 25/303/303
f 56/304/304 28/305/305 64/306/306
f 28/307/307 22/308/308 64/309/309
f 65/310/310 39/311/311 52/312/312
f 39/313/313 41/314/314 52/315/315
f 22/316/316 21/317/317 64/318/318
f 21/319/319 66/320/320 64/321/321
f 21/322/322 23/323/323 67/324/324
f 23/325/325 63/326/326 67/327/327
f 52/328/328 54/329/329 65/330/330
f 54/331/331 66/332/332 65/333/333
f 39/334/334 67/335/335 40/336/336
f 67/337/337 63/338/338 40/339/339
f 21/340/340 67/341/341 66/342/342
f 67/343/343 65/344/344 66/345/345
f 39/346/346 65/347/347 67/348/348
f 43/349/349 50/350/350 53/351/351
f 62/352/352 53/353/353 50/354/354
f 56/355/355 64/356/356 54/357/357
f 28/358/358 56/359/359 29/360/360
f 61/361/361 29/362/362 56/363/363
f 66/364/364 54/365/365 64/366/366
